<?xml version="1.0" encoding="utf-8"?>
<!-- Generator: Adobe Illustrator 25.2.3, SVG Export Plug-In . SVG Version: 6.00 Build 0)  -->
<svg version="1.1" id="Layer_1" xmlns="http://www.w3.org/2000/svg" xmlns:xlink="http://www.w3.org/1999/xlink" x="0px" y="0px"
	 viewBox="0 0 930.1 437.2" style="enable-background:new 0 0 930.1 437.2;" xml:space="preserve">
<style type="text/css">
	.st0{fill:#FFFFFF;}
</style>
<g>
	<polygon class="st0" points="251.5,94 196.6,94 199.5,79.6 245.8,79.6 251.2,53.1 204.8,53.1 207.4,40.2 260.1,40.2 265.7,12.4 
		176.7,12.4 154.8,121.9 245.8,121.9 	"/>
	<polygon class="st0" points="295.9,121.9 303.8,82.3 315.9,82.3 329.2,121.9 368.3,121.9 347.3,66.5 391.3,12.4 350.3,12.4 
		319,53.2 309.6,53.2 317.8,12.4 280.9,12.4 259,121.9 	"/>
	<polygon class="st0" points="413.2,121.9 435.1,12.4 398.2,12.4 376.3,121.9 	"/>
	<polygon class="st0" points="468.7,121.9 476.7,81.5 510.8,81.5 502.8,121.9 539.7,121.9 561.6,12.4 524.7,12.4 516.9,51.2 
		482.8,51.2 490.6,12.4 453.7,12.4 431.8,121.9 	"/>
	<polygon class="st0" points="709.3,121.9 731.2,12.4 694.9,12.4 679.1,93.2 657.2,93.2 673,12.4 636.8,12.4 621,93.2 598.9,93.2 
		614.7,12.4 578.4,12.4 556.6,121.9 	"/>
	<polygon class="st0" points="764.8,121.9 786.7,12.4 749.8,12.4 727.9,121.9 	"/>
</g>
</svg>
