<?xml version="1.0" encoding="utf-8"?>
<!-- Generator: Adobe Illustrator 25.2.3, SVG Export Plug-In . SVG Version: 6.00 Build 0)  -->
<svg version="1.1" id="Layer_1" xmlns="http://www.w3.org/2000/svg" xmlns:xlink="http://www.w3.org/1999/xlink" x="0px" y="0px"
	 viewBox="0 0 930.1 437.2" style="enable-background:new 0 0 930.1 437.2;" xml:space="preserve">
<style type="text/css">
	.st0{fill:#FFFFFF;}
</style>
<path class="st0" d="M125,169.4l-7.7,31.9c-1.7,7-3.5,13.4-5.6,19.4s-4.2,11.1-6.6,15.6c-2.3,4.4-5,7.9-7.8,10.3
	c-2.9,2.5-6,3.7-9.5,3.7h-1.9l-10,50h33.8l4.2-21.4h62.2l-4.2,21.4h33.8l10-50h-14.4l16.2-80.8L125,169.4L125,169.4z M134.3,247.8
	c1.9-3.2,3.7-6.8,5.3-10.9c1.6-4.1,3.1-8.7,4.5-13.6c1.4-5,2.8-10.3,4.1-16l2.2-9.2h25.2l-10.5,52.2h-32.4
	C133.3,249.5,133.8,248.7,134.3,247.8z"/>
<polygon class="st0" points="315.6,251 260.7,251 263.6,236.6 310,236.6 315.3,210.1 268.9,210.1 271.5,197.2 324.2,197.2 
	329.8,169.4 240.9,169.4 219,278.9 310,278.9 "/>
<polygon class="st0" points="454.5,278.9 476.1,169.4 444.7,169.4 398.9,227.5 375.1,169.4 345,169.4 323.2,278.9 356.8,278.9 
	366.6,229.7 383.5,269 399.8,269 430.6,228.9 420.9,278.9 "/>
<polygon class="st0" points="529.3,169.4 492.3,169.4 470.5,278.9 507.4,278.9 "/>
<polygon class="st0" points="635.5,250.2 651.7,169.4 614.8,169.4 607,208.2 573,208.2 580.7,169.4 543.8,169.4 521.9,278.9 
	558.8,278.9 566.9,238.5 601,238.5 592.9,278.9 609.4,278.9 605.1,300.3 638.9,300.3 648.9,250.2 "/>
<path class="st0" d="M698.7,169.4l-7.7,31.9c-1.7,7-3.5,13.4-5.6,19.4c-2,5.9-4.2,11.1-6.6,15.6c-2.3,4.4-5,7.9-7.8,10.3
	c-2.9,2.5-6,3.7-9.5,3.7h-1.9l-10,50h33.8l4.2-21.4H750l-4.2,21.4h33.8l10-50h-14.4l16.2-80.8L698.7,169.4L698.7,169.4z M708,247.8
	c1.9-3.2,3.7-6.8,5.3-10.9c1.6-4.1,3.1-8.7,4.5-13.6c1.4-5,2.8-10.3,4.1-16l2.2-9.2h25.2l-10.5,52.2h-32.4
	C706.9,249.5,707.5,248.7,708,247.8z"/>
<polygon class="st0" points="817.1,169.4 795.2,278.9 832.1,278.9 854,169.4 "/>
</svg>
