<?xml version="1.0" encoding="utf-8"?>
<!-- Generator: Adobe Illustrator 25.2.3, SVG Export Plug-In . SVG Version: 6.00 Build 0)  -->
<svg version="1.1" id="Layer_1" xmlns="http://www.w3.org/2000/svg" xmlns:xlink="http://www.w3.org/1999/xlink" x="0px" y="0px"
	 viewBox="0 0 293.9 304.5" style="enable-background:new 0 0 293.9 304.5;" xml:space="preserve">
<style type="text/css">
	.st0{fill:#FFFFFF;}
</style>
<g>
	<g>
		<path class="st0" d="M-0.3,9.8l5.4-8.4h2.8l2,8.4H7L5.7,2.7h1.1L2.7,9.8H-0.3z M2.2,8.3l1.1-2h3.9l0.3,2H2.2z"/>
		<path class="st0" d="M16.2,7.6l-0.7,0.6l1.3-6.8h2.8l-1.3,6.8l-0.5-0.6h2.9l-0.8,0.6l1.3-6.8H24l-1.7,8.4H10.6l1.7-8.4h2.8
			l-1.3,6.8l-0.5-0.6H16.2z"/>
		<path class="st0" d="M26.7,9.8l5.4-8.4h2.8l2,8.4h-2.8l-1.4-7.1h1.1l-4.1,7.1H26.7z M29.2,8.3l1.1-2h3.9l0.3,2H29.2z"/>
		<path class="st0" d="M43.2,7.6l-0.7,0.6l1.3-6.8h2.8l-1.3,6.8l-0.5-0.6h2.9l-0.8,0.6l1.3-6.8h2.8l-1.7,8.4H37.7l1.7-8.4h2.8
			l-1.3,6.8l-0.5-0.6H43.2z"/>
		<path class="st0" d="M53.8,9.8l5.4-8.4h2.8l2,8.4h-2.8l-1.4-7.1h1.1l-4.1,7.1H53.8z M56.2,8.3l1.1-2h3.9l0.3,2H56.2z"/>
		<path class="st0" d="M70.2,7.6l-0.7,0.6l1.3-6.8h2.8l-1.3,6.8l-0.5-0.6h2.9L74,8.2l1.3-6.8h2.8l-1.7,8.4H64.7l1.7-8.4h2.8
			l-1.3,6.8l-0.5-0.6H70.2z"/>
		<path class="st0" d="M80.8,9.8l5.4-8.4h2.8l2,8.4h-2.8l-1.4-7.1h1.1l-4.1,7.1H80.8z M83.2,8.3l1.1-2h3.9l0.3,2H83.2z"/>
		<path class="st0" d="M97.2,7.6l-0.7,0.6l1.3-6.8h2.8l-1.3,6.8l-0.5-0.6h2.9L101,8.2l1.3-6.8h2.8l-1.7,8.4H91.7l1.7-8.4h2.8
			l-1.3,6.8l-0.5-0.6H97.2z"/>
		<path class="st0" d="M107.8,9.8l5.4-8.4h2.8l2,8.4h-2.8l-1.4-7.1h1.1l-4.1,7.1H107.8z M110.3,8.3l1.1-2h3.9l0.3,2H110.3z"/>
		<path class="st0" d="M124.3,7.6l-0.7,0.6l1.3-6.8h2.8l-1.3,6.8l-0.5-0.6h2.9L128,8.2l1.3-6.8h2.8l-1.7,8.4h-11.7l1.7-8.4h2.8
			l-1.3,6.8l-0.5-0.6H124.3z"/>
		<path class="st0" d="M134.8,9.8l5.4-8.4h2.8l2,8.4h-2.8l-1.4-7.1h1.1l-4.1,7.1H134.8z M137.3,8.3l1.1-2h3.9l0.3,2H137.3z"/>
		<path class="st0" d="M151.3,7.6l-0.7,0.6l1.3-6.8h2.8l-1.3,6.8l-0.5-0.6h2.9L155,8.2l1.3-6.8h2.8l-1.7,8.4h-11.7l1.7-8.4h2.8
			l-1.3,6.8l-0.5-0.6H151.3z"/>
		<path class="st0" d="M161.8,9.8l5.4-8.4h2.8l2,8.4h-2.8l-1.4-7.1h1.1l-4.1,7.1H161.8z M164.3,8.3l1.1-2h3.9l0.3,2H164.3z"/>
		<path class="st0" d="M178.3,7.6l-0.7,0.6l1.3-6.8h2.8l-1.3,6.8l-0.5-0.6h2.9L182,8.2l1.3-6.8h2.8l-1.7,8.4h-11.7l1.7-8.4h2.8
			l-1.3,6.8l-0.5-0.6H178.3z"/>
		<path class="st0" d="M188.8,9.8l5.4-8.4h2.8l2,8.4h-2.8l-1.4-7.1h1.1l-4.1,7.1H188.8z M191.3,8.3l1.1-2h3.9l0.3,2H191.3z"/>
		<path class="st0" d="M205.3,7.6l-0.7,0.6l1.3-6.8h2.8l-1.3,6.8l-0.5-0.6h2.9L209,8.2l1.3-6.8h2.8l-1.7,8.4h-11.7l1.7-8.4h2.8
			l-1.3,6.8l-0.5-0.6H205.3z"/>
		<path class="st0" d="M215.8,9.8l5.4-8.4h2.8l2,8.4h-2.8l-1.4-7.1h1.1l-4.1,7.1H215.8z M218.3,8.3l1.1-2h3.9l0.3,2H218.3z"/>
		<path class="st0" d="M232.3,7.6l-0.7,0.6l1.3-6.8h2.8l-1.3,6.8l-0.5-0.6h2.9L236,8.2l1.3-6.8h2.8l-1.7,8.4h-11.7l1.7-8.4h2.8
			l-1.3,6.8l-0.5-0.6H232.3z"/>
		<path class="st0" d="M242.8,9.8l5.4-8.4h2.8l2,8.4h-2.8l-1.4-7.1h1.1l-4.1,7.1H242.8z M245.3,8.3l1.1-2h3.9l0.3,2H245.3z"/>
		<path class="st0" d="M259.3,7.6l-0.7,0.6l1.3-6.8h2.8l-1.3,6.8l-0.5-0.6h2.9L263,8.2l1.3-6.8h2.8l-1.7,8.4h-11.7l1.7-8.4h2.8
			l-1.3,6.8l-0.5-0.6H259.3z"/>
		<path class="st0" d="M269.9,9.8l5.4-8.4h2.8l2,8.4h-2.8l-1.4-7.1h1.1l-4.1,7.1H269.9z M272.3,8.3l1.1-2h3.9l0.3,2H272.3z"/>
		<path class="st0" d="M286.3,7.6l-0.7,0.6l1.3-6.8h2.8l-1.3,6.8l-0.5-0.6h2.9L290,8.2l1.3-6.8h2.8l-1.7,8.4h-11.7l1.7-8.4h2.8
			l-1.3,6.8l-0.5-0.6H286.3z"/>
	</g>
	<g>
		<path class="st0" d="M-0.3,24.5l5.4-8.4h2.8l2,8.4H7l-1.4-7.1h1.1l-4.1,7.1H-0.3z M2.2,23l1.1-2h3.9l0.3,2H2.2z"/>
		<path class="st0" d="M16.2,22.3l-0.7,0.6l1.3-6.8h2.8l-1.3,6.8l-0.5-0.6h2.9l-0.8,0.6l1.3-6.8H24l-1.7,8.4H10.6l1.7-8.4h2.8
			l-1.3,6.8l-0.5-0.6H16.2z"/>
		<path class="st0" d="M26.7,24.5l5.4-8.4h2.8l2,8.4h-2.8l-1.4-7.1h1.1l-4.1,7.1H26.7z M29.2,23l1.1-2h3.9l0.3,2H29.2z"/>
		<path class="st0" d="M43.2,22.3l-0.7,0.6l1.3-6.8h2.8l-1.3,6.8l-0.5-0.6h2.9l-0.8,0.6l1.3-6.8h2.8l-1.7,8.4H37.7l1.7-8.4h2.8
			l-1.3,6.8l-0.5-0.6H43.2z"/>
		<path class="st0" d="M53.8,24.5l5.4-8.4h2.8l2,8.4h-2.8l-1.4-7.1h1.1l-4.1,7.1H53.8z M56.2,23l1.1-2h3.9l0.3,2H56.2z"/>
		<path class="st0" d="M70.2,22.3l-0.7,0.6l1.3-6.8h2.8l-1.3,6.8l-0.5-0.6h2.9L74,22.9l1.3-6.8h2.8l-1.7,8.4H64.7l1.7-8.4h2.8
			l-1.3,6.8l-0.5-0.6H70.2z"/>
		<path class="st0" d="M80.8,24.5l5.4-8.4h2.8l2,8.4h-2.8l-1.4-7.1h1.1l-4.1,7.1H80.8z M83.2,23l1.1-2h3.9l0.3,2H83.2z"/>
		<path class="st0" d="M97.2,22.3l-0.7,0.6l1.3-6.8h2.8l-1.3,6.8l-0.5-0.6h2.9l-0.8,0.6l1.3-6.8h2.8l-1.7,8.4H91.7l1.7-8.4h2.8
			l-1.3,6.8l-0.5-0.6H97.2z"/>
		<path class="st0" d="M107.8,24.5l5.4-8.4h2.8l2,8.4h-2.8l-1.4-7.1h1.1l-4.1,7.1H107.8z M110.3,23l1.1-2h3.9l0.3,2H110.3z"/>
		<path class="st0" d="M124.3,22.3l-0.7,0.6l1.3-6.8h2.8l-1.3,6.8l-0.5-0.6h2.9l-0.8,0.6l1.3-6.8h2.8l-1.7,8.4h-11.7l1.7-8.4h2.8
			l-1.3,6.8l-0.5-0.6H124.3z"/>
		<path class="st0" d="M134.8,24.5l5.4-8.4h2.8l2,8.4h-2.8l-1.4-7.1h1.1l-4.1,7.1H134.8z M137.3,23l1.1-2h3.9l0.3,2H137.3z"/>
		<path class="st0" d="M151.3,22.3l-0.7,0.6l1.3-6.8h2.8l-1.3,6.8l-0.5-0.6h2.9l-0.8,0.6l1.3-6.8h2.8l-1.7,8.4h-11.7l1.7-8.4h2.8
			l-1.3,6.8l-0.5-0.6H151.3z"/>
		<path class="st0" d="M161.8,24.5l5.4-8.4h2.8l2,8.4h-2.8l-1.4-7.1h1.1l-4.1,7.1H161.8z M164.3,23l1.1-2h3.9l0.3,2H164.3z"/>
		<path class="st0" d="M178.3,22.3l-0.7,0.6l1.3-6.8h2.8l-1.3,6.8l-0.5-0.6h2.9l-0.8,0.6l1.3-6.8h2.8l-1.7,8.4h-11.7l1.7-8.4h2.8
			l-1.3,6.8l-0.5-0.6H178.3z"/>
		<path class="st0" d="M188.8,24.5l5.4-8.4h2.8l2,8.4h-2.8l-1.4-7.1h1.1l-4.1,7.1H188.8z M191.3,23l1.1-2h3.9l0.3,2H191.3z"/>
		<path class="st0" d="M205.3,22.3l-0.7,0.6l1.3-6.8h2.8l-1.3,6.8l-0.5-0.6h2.9l-0.8,0.6l1.3-6.8h2.8l-1.7,8.4h-11.7l1.7-8.4h2.8
			l-1.3,6.8l-0.5-0.6H205.3z"/>
		<path class="st0" d="M215.8,24.5l5.4-8.4h2.8l2,8.4h-2.8l-1.4-7.1h1.1l-4.1,7.1H215.8z M218.3,23l1.1-2h3.9l0.3,2H218.3z"/>
		<path class="st0" d="M232.3,22.3l-0.7,0.6l1.3-6.8h2.8l-1.3,6.8l-0.5-0.6h2.9l-0.8,0.6l1.3-6.8h2.8l-1.7,8.4h-11.7l1.7-8.4h2.8
			l-1.3,6.8l-0.5-0.6H232.3z"/>
		<path class="st0" d="M242.8,24.5l5.4-8.4h2.8l2,8.4h-2.8l-1.4-7.1h1.1l-4.1,7.1H242.8z M245.3,23l1.1-2h3.9l0.3,2H245.3z"/>
		<path class="st0" d="M259.3,22.3l-0.7,0.6l1.3-6.8h2.8l-1.3,6.8l-0.5-0.6h2.9l-0.8,0.6l1.3-6.8h2.8l-1.7,8.4h-11.7l1.7-8.4h2.8
			l-1.3,6.8l-0.5-0.6H259.3z"/>
		<path class="st0" d="M269.9,24.5l5.4-8.4h2.8l2,8.4h-2.8l-1.4-7.1h1.1l-4.1,7.1H269.9z M272.3,23l1.1-2h3.9l0.3,2H272.3z"/>
		<path class="st0" d="M286.3,22.3l-0.7,0.6l1.3-6.8h2.8l-1.3,6.8l-0.5-0.6h2.9l-0.8,0.6l1.3-6.8h2.8l-1.7,8.4h-11.7l1.7-8.4h2.8
			l-1.3,6.8l-0.5-0.6H286.3z"/>
	</g>
	<g>
		<path class="st0" d="M-0.3,39.1l5.4-8.4h2.8l2,8.4H7L5.7,32h1.1l-4.1,7.1H-0.3z M2.2,37.7l1.1-2h3.9l0.3,2H2.2z"/>
		<path class="st0" d="M16.2,36.9l-0.7,0.6l1.3-6.8h2.8l-1.3,6.8l-0.5-0.6h2.9l-0.8,0.6l1.3-6.8H24l-1.7,8.4H10.6l1.7-8.4h2.8
			l-1.3,6.8l-0.5-0.6H16.2z"/>
		<path class="st0" d="M26.7,39.1l5.4-8.4h2.8l2,8.4h-2.8L32.7,32h1.1l-4.1,7.1H26.7z M29.2,37.7l1.1-2h3.9l0.3,2H29.2z"/>
		<path class="st0" d="M43.2,36.9l-0.7,0.6l1.3-6.8h2.8l-1.3,6.8l-0.5-0.6h2.9l-0.8,0.6l1.3-6.8h2.8l-1.7,8.4H37.7l1.7-8.4h2.8
			l-1.3,6.8l-0.5-0.6H43.2z"/>
		<path class="st0" d="M53.8,39.1l5.4-8.4h2.8l2,8.4h-2.8L59.7,32h1.1l-4.1,7.1H53.8z M56.2,37.7l1.1-2h3.9l0.3,2H56.2z"/>
		<path class="st0" d="M70.2,36.9l-0.7,0.6l1.3-6.8h2.8l-1.3,6.8l-0.5-0.6h2.9L74,37.5l1.3-6.8h2.8l-1.7,8.4H64.7l1.7-8.4h2.8
			l-1.3,6.8l-0.5-0.6H70.2z"/>
		<path class="st0" d="M80.8,39.1l5.4-8.4h2.8l2,8.4h-2.8L86.7,32h1.1l-4.1,7.1H80.8z M83.2,37.7l1.1-2h3.9l0.3,2H83.2z"/>
		<path class="st0" d="M97.2,36.9l-0.7,0.6l1.3-6.8h2.8l-1.3,6.8l-0.5-0.6h2.9l-0.8,0.6l1.3-6.8h2.8l-1.7,8.4H91.7l1.7-8.4h2.8
			l-1.3,6.8l-0.5-0.6H97.2z"/>
		<path class="st0" d="M107.8,39.1l5.4-8.4h2.8l2,8.4h-2.8l-1.4-7.1h1.1l-4.1,7.1H107.8z M110.3,37.7l1.1-2h3.9l0.3,2H110.3z"/>
		<path class="st0" d="M124.3,36.9l-0.7,0.6l1.3-6.8h2.8l-1.3,6.8l-0.5-0.6h2.9l-0.8,0.6l1.3-6.8h2.8l-1.7,8.4h-11.7l1.7-8.4h2.8
			l-1.3,6.8l-0.5-0.6H124.3z"/>
		<path class="st0" d="M134.8,39.1l5.4-8.4h2.8l2,8.4h-2.8l-1.4-7.1h1.1l-4.1,7.1H134.8z M137.3,37.7l1.1-2h3.9l0.3,2H137.3z"/>
		<path class="st0" d="M151.3,36.9l-0.7,0.6l1.3-6.8h2.8l-1.3,6.8l-0.5-0.6h2.9l-0.8,0.6l1.3-6.8h2.8l-1.7,8.4h-11.7l1.7-8.4h2.8
			l-1.3,6.8l-0.5-0.6H151.3z"/>
		<path class="st0" d="M161.8,39.1l5.4-8.4h2.8l2,8.4h-2.8l-1.4-7.1h1.1l-4.1,7.1H161.8z M164.3,37.7l1.1-2h3.9l0.3,2H164.3z"/>
		<path class="st0" d="M178.3,36.9l-0.7,0.6l1.3-6.8h2.8l-1.3,6.8l-0.5-0.6h2.9l-0.8,0.6l1.3-6.8h2.8l-1.7,8.4h-11.7l1.7-8.4h2.8
			l-1.3,6.8l-0.5-0.6H178.3z"/>
		<path class="st0" d="M188.8,39.1l5.4-8.4h2.8l2,8.4h-2.8l-1.4-7.1h1.1l-4.1,7.1H188.8z M191.3,37.7l1.1-2h3.9l0.3,2H191.3z"/>
		<path class="st0" d="M205.3,36.9l-0.7,0.6l1.3-6.8h2.8l-1.3,6.8l-0.5-0.6h2.9l-0.8,0.6l1.3-6.8h2.8l-1.7,8.4h-11.7l1.7-8.4h2.8
			l-1.3,6.8l-0.5-0.6H205.3z"/>
		<path class="st0" d="M215.8,39.1l5.4-8.4h2.8l2,8.4h-2.8l-1.4-7.1h1.1l-4.1,7.1H215.8z M218.3,37.7l1.1-2h3.9l0.3,2H218.3z"/>
		<path class="st0" d="M232.3,36.9l-0.7,0.6l1.3-6.8h2.8l-1.3,6.8l-0.5-0.6h2.9l-0.8,0.6l1.3-6.8h2.8l-1.7,8.4h-11.7l1.7-8.4h2.8
			l-1.3,6.8l-0.5-0.6H232.3z"/>
		<path class="st0" d="M242.8,39.1l5.4-8.4h2.8l2,8.4h-2.8l-1.4-7.1h1.1l-4.1,7.1H242.8z M245.3,37.7l1.1-2h3.9l0.3,2H245.3z"/>
		<path class="st0" d="M259.3,36.9l-0.7,0.6l1.3-6.8h2.8l-1.3,6.8l-0.5-0.6h2.9l-0.8,0.6l1.3-6.8h2.8l-1.7,8.4h-11.7l1.7-8.4h2.8
			l-1.3,6.8l-0.5-0.6H259.3z"/>
		<path class="st0" d="M269.9,39.1l5.4-8.4h2.8l2,8.4h-2.8l-1.4-7.1h1.1l-4.1,7.1H269.9z M272.3,37.7l1.1-2h3.9l0.3,2H272.3z"/>
		<path class="st0" d="M286.3,36.9l-0.7,0.6l1.3-6.8h2.8l-1.3,6.8l-0.5-0.6h2.9l-0.8,0.6l1.3-6.8h2.8l-1.7,8.4h-11.7l1.7-8.4h2.8
			l-1.3,6.8l-0.5-0.6H286.3z"/>
	</g>
	<g>
		<path class="st0" d="M-0.3,53.8l5.4-8.4h2.8l2,8.4H7l-1.4-7.1h1.1l-4.1,7.1H-0.3z M2.2,52.3l1.1-2h3.9l0.3,2H2.2z"/>
		<path class="st0" d="M16.2,51.6l-0.7,0.6l1.3-6.8h2.8l-1.3,6.8l-0.5-0.6h2.9l-0.8,0.6l1.3-6.8H24l-1.7,8.4H10.6l1.7-8.4h2.8
			l-1.3,6.8l-0.5-0.6H16.2z"/>
		<path class="st0" d="M26.7,53.8l5.4-8.4h2.8l2,8.4h-2.8l-1.4-7.1h1.1l-4.1,7.1H26.7z M29.2,52.3l1.1-2h3.9l0.3,2H29.2z"/>
		<path class="st0" d="M43.2,51.6l-0.7,0.6l1.3-6.8h2.8l-1.3,6.8l-0.5-0.6h2.9l-0.8,0.6l1.3-6.8h2.8l-1.7,8.4H37.7l1.7-8.4h2.8
			l-1.3,6.8l-0.5-0.6H43.2z"/>
		<path class="st0" d="M53.8,53.8l5.4-8.4h2.8l2,8.4h-2.8l-1.4-7.1h1.1l-4.1,7.1H53.8z M56.2,52.3l1.1-2h3.9l0.3,2H56.2z"/>
		<path class="st0" d="M70.2,51.6l-0.7,0.6l1.3-6.8h2.8l-1.3,6.8l-0.5-0.6h2.9L74,52.2l1.3-6.8h2.8l-1.7,8.4H64.7l1.7-8.4h2.8
			l-1.3,6.8l-0.5-0.6H70.2z"/>
		<path class="st0" d="M80.8,53.8l5.4-8.4h2.8l2,8.4h-2.8l-1.4-7.1h1.1l-4.1,7.1H80.8z M83.2,52.3l1.1-2h3.9l0.3,2H83.2z"/>
		<path class="st0" d="M97.2,51.6l-0.7,0.6l1.3-6.8h2.8l-1.3,6.8l-0.5-0.6h2.9l-0.8,0.6l1.3-6.8h2.8l-1.7,8.4H91.7l1.7-8.4h2.8
			l-1.3,6.8l-0.5-0.6H97.2z"/>
		<path class="st0" d="M107.8,53.8l5.4-8.4h2.8l2,8.4h-2.8l-1.4-7.1h1.1l-4.1,7.1H107.8z M110.3,52.3l1.1-2h3.9l0.3,2H110.3z"/>
		<path class="st0" d="M124.3,51.6l-0.7,0.6l1.3-6.8h2.8l-1.3,6.8l-0.5-0.6h2.9l-0.8,0.6l1.3-6.8h2.8l-1.7,8.4h-11.7l1.7-8.4h2.8
			l-1.3,6.8l-0.5-0.6H124.3z"/>
		<path class="st0" d="M134.8,53.8l5.4-8.4h2.8l2,8.4h-2.8l-1.4-7.1h1.1l-4.1,7.1H134.8z M137.3,52.3l1.1-2h3.9l0.3,2H137.3z"/>
		<path class="st0" d="M151.3,51.6l-0.7,0.6l1.3-6.8h2.8l-1.3,6.8l-0.5-0.6h2.9l-0.8,0.6l1.3-6.8h2.8l-1.7,8.4h-11.7l1.7-8.4h2.8
			l-1.3,6.8l-0.5-0.6H151.3z"/>
		<path class="st0" d="M161.8,53.8l5.4-8.4h2.8l2,8.4h-2.8l-1.4-7.1h1.1l-4.1,7.1H161.8z M164.3,52.3l1.1-2h3.9l0.3,2H164.3z"/>
		<path class="st0" d="M178.3,51.6l-0.7,0.6l1.3-6.8h2.8l-1.3,6.8l-0.5-0.6h2.9l-0.8,0.6l1.3-6.8h2.8l-1.7,8.4h-11.7l1.7-8.4h2.8
			l-1.3,6.8l-0.5-0.6H178.3z"/>
		<path class="st0" d="M188.8,53.8l5.4-8.4h2.8l2,8.4h-2.8l-1.4-7.1h1.1l-4.1,7.1H188.8z M191.3,52.3l1.1-2h3.9l0.3,2H191.3z"/>
		<path class="st0" d="M205.3,51.6l-0.7,0.6l1.3-6.8h2.8l-1.3,6.8l-0.5-0.6h2.9l-0.8,0.6l1.3-6.8h2.8l-1.7,8.4h-11.7l1.7-8.4h2.8
			l-1.3,6.8l-0.5-0.6H205.3z"/>
		<path class="st0" d="M215.8,53.8l5.4-8.4h2.8l2,8.4h-2.8l-1.4-7.1h1.1l-4.1,7.1H215.8z M218.3,52.3l1.1-2h3.9l0.3,2H218.3z"/>
		<path class="st0" d="M232.3,51.6l-0.7,0.6l1.3-6.8h2.8l-1.3,6.8l-0.5-0.6h2.9l-0.8,0.6l1.3-6.8h2.8l-1.7,8.4h-11.7l1.7-8.4h2.8
			l-1.3,6.8l-0.5-0.6H232.3z"/>
		<path class="st0" d="M242.8,53.8l5.4-8.4h2.8l2,8.4h-2.8l-1.4-7.1h1.1l-4.1,7.1H242.8z M245.3,52.3l1.1-2h3.9l0.3,2H245.3z"/>
		<path class="st0" d="M259.3,51.6l-0.7,0.6l1.3-6.8h2.8l-1.3,6.8l-0.5-0.6h2.9l-0.8,0.6l1.3-6.8h2.8l-1.7,8.4h-11.7l1.7-8.4h2.8
			l-1.3,6.8l-0.5-0.6H259.3z"/>
		<path class="st0" d="M269.9,53.8l5.4-8.4h2.8l2,8.4h-2.8l-1.4-7.1h1.1l-4.1,7.1H269.9z M272.3,52.3l1.1-2h3.9l0.3,2H272.3z"/>
		<path class="st0" d="M286.3,51.6l-0.7,0.6l1.3-6.8h2.8l-1.3,6.8l-0.5-0.6h2.9l-0.8,0.6l1.3-6.8h2.8l-1.7,8.4h-11.7l1.7-8.4h2.8
			l-1.3,6.8l-0.5-0.6H286.3z"/>
	</g>
	<g>
		<path class="st0" d="M-0.3,68.5l5.4-8.4h2.8l2,8.4H7l-1.4-7.1h1.1l-4.1,7.1H-0.3z M2.2,67l1.1-2h3.9l0.3,2H2.2z"/>
		<path class="st0" d="M16.2,66.3l-0.7,0.6l1.3-6.8h2.8l-1.3,6.8l-0.5-0.6h2.9l-0.8,0.6l1.3-6.8H24l-1.7,8.4H10.6l1.7-8.4h2.8
			l-1.3,6.8l-0.5-0.6H16.2z"/>
		<path class="st0" d="M26.7,68.5l5.4-8.4h2.8l2,8.4h-2.8l-1.4-7.1h1.1l-4.1,7.1H26.7z M29.2,67l1.1-2h3.9l0.3,2H29.2z"/>
		<path class="st0" d="M43.2,66.3l-0.7,0.6l1.3-6.8h2.8l-1.3,6.8l-0.5-0.6h2.9l-0.8,0.6l1.3-6.8h2.8l-1.7,8.4H37.7l1.7-8.4h2.8
			l-1.3,6.8l-0.5-0.6H43.2z"/>
		<path class="st0" d="M53.8,68.5l5.4-8.4h2.8l2,8.4h-2.8l-1.4-7.1h1.1l-4.1,7.1H53.8z M56.2,67l1.1-2h3.9l0.3,2H56.2z"/>
		<path class="st0" d="M70.2,66.3l-0.7,0.6l1.3-6.8h2.8l-1.3,6.8l-0.5-0.6h2.9L74,66.9l1.3-6.8h2.8l-1.7,8.4H64.7l1.7-8.4h2.8
			l-1.3,6.8l-0.5-0.6H70.2z"/>
		<path class="st0" d="M80.8,68.5l5.4-8.4h2.8l2,8.4h-2.8l-1.4-7.1h1.1l-4.1,7.1H80.8z M83.2,67l1.1-2h3.9l0.3,2H83.2z"/>
		<path class="st0" d="M97.2,66.3l-0.7,0.6l1.3-6.8h2.8l-1.3,6.8l-0.5-0.6h2.9l-0.8,0.6l1.3-6.8h2.8l-1.7,8.4H91.7l1.7-8.4h2.8
			l-1.3,6.8l-0.5-0.6H97.2z"/>
		<path class="st0" d="M107.8,68.5l5.4-8.4h2.8l2,8.4h-2.8l-1.4-7.1h1.1l-4.1,7.1H107.8z M110.3,67l1.1-2h3.9l0.3,2H110.3z"/>
		<path class="st0" d="M124.3,66.3l-0.7,0.6l1.3-6.8h2.8l-1.3,6.8l-0.5-0.6h2.9l-0.8,0.6l1.3-6.8h2.8l-1.7,8.4h-11.7l1.7-8.4h2.8
			l-1.3,6.8l-0.5-0.6H124.3z"/>
		<path class="st0" d="M134.8,68.5l5.4-8.4h2.8l2,8.4h-2.8l-1.4-7.1h1.1l-4.1,7.1H134.8z M137.3,67l1.1-2h3.9l0.3,2H137.3z"/>
		<path class="st0" d="M151.3,66.3l-0.7,0.6l1.3-6.8h2.8l-1.3,6.8l-0.5-0.6h2.9l-0.8,0.6l1.3-6.8h2.8l-1.7,8.4h-11.7l1.7-8.4h2.8
			l-1.3,6.8l-0.5-0.6H151.3z"/>
		<path class="st0" d="M161.8,68.5l5.4-8.4h2.8l2,8.4h-2.8l-1.4-7.1h1.1l-4.1,7.1H161.8z M164.3,67l1.1-2h3.9l0.3,2H164.3z"/>
		<path class="st0" d="M178.3,66.3l-0.7,0.6l1.3-6.8h2.8l-1.3,6.8l-0.5-0.6h2.9l-0.8,0.6l1.3-6.8h2.8l-1.7,8.4h-11.7l1.7-8.4h2.8
			l-1.3,6.8l-0.5-0.6H178.3z"/>
		<path class="st0" d="M188.8,68.5l5.4-8.4h2.8l2,8.4h-2.8l-1.4-7.1h1.1l-4.1,7.1H188.8z M191.3,67l1.1-2h3.9l0.3,2H191.3z"/>
		<path class="st0" d="M205.3,66.3l-0.7,0.6l1.3-6.8h2.8l-1.3,6.8l-0.5-0.6h2.9l-0.8,0.6l1.3-6.8h2.8l-1.7,8.4h-11.7l1.7-8.4h2.8
			l-1.3,6.8l-0.5-0.6H205.3z"/>
		<path class="st0" d="M215.8,68.5l5.4-8.4h2.8l2,8.4h-2.8l-1.4-7.1h1.1l-4.1,7.1H215.8z M218.3,67l1.1-2h3.9l0.3,2H218.3z"/>
		<path class="st0" d="M232.3,66.3l-0.7,0.6l1.3-6.8h2.8l-1.3,6.8l-0.5-0.6h2.9l-0.8,0.6l1.3-6.8h2.8l-1.7,8.4h-11.7l1.7-8.4h2.8
			l-1.3,6.8l-0.5-0.6H232.3z"/>
		<path class="st0" d="M242.8,68.5l5.4-8.4h2.8l2,8.4h-2.8l-1.4-7.1h1.1l-4.1,7.1H242.8z M245.3,67l1.1-2h3.9l0.3,2H245.3z"/>
		<path class="st0" d="M259.3,66.3l-0.7,0.6l1.3-6.8h2.8l-1.3,6.8l-0.5-0.6h2.9l-0.8,0.6l1.3-6.8h2.8l-1.7,8.4h-11.7l1.7-8.4h2.8
			l-1.3,6.8l-0.5-0.6H259.3z"/>
		<path class="st0" d="M269.9,68.5l5.4-8.4h2.8l2,8.4h-2.8l-1.4-7.1h1.1l-4.1,7.1H269.9z M272.3,67l1.1-2h3.9l0.3,2H272.3z"/>
		<path class="st0" d="M286.3,66.3l-0.7,0.6l1.3-6.8h2.8l-1.3,6.8l-0.5-0.6h2.9l-0.8,0.6l1.3-6.8h2.8l-1.7,8.4h-11.7l1.7-8.4h2.8
			l-1.3,6.8l-0.5-0.6H286.3z"/>
	</g>
	<g>
		<path class="st0" d="M-0.3,83.1l5.4-8.4h2.8l2,8.4H7L5.7,76h1.1l-4.1,7.1H-0.3z M2.2,81.7l1.1-2h3.9l0.3,2H2.2z"/>
		<path class="st0" d="M16.2,80.9l-0.7,0.6l1.3-6.8h2.8l-1.3,6.8l-0.5-0.6h2.9l-0.8,0.6l1.3-6.8H24l-1.7,8.4H10.6l1.7-8.4h2.8
			l-1.3,6.8l-0.5-0.6H16.2z"/>
		<path class="st0" d="M26.7,83.1l5.4-8.4h2.8l2,8.4h-2.8L32.7,76h1.1l-4.1,7.1H26.7z M29.2,81.7l1.1-2h3.9l0.3,2H29.2z"/>
		<path class="st0" d="M43.2,80.9l-0.7,0.6l1.3-6.8h2.8l-1.3,6.8l-0.5-0.6h2.9l-0.8,0.6l1.3-6.8h2.8l-1.7,8.4H37.7l1.7-8.4h2.8
			l-1.3,6.8l-0.5-0.6H43.2z"/>
		<path class="st0" d="M53.8,83.1l5.4-8.4h2.8l2,8.4h-2.8L59.7,76h1.1l-4.1,7.1H53.8z M56.2,81.7l1.1-2h3.9l0.3,2H56.2z"/>
		<path class="st0" d="M70.2,80.9l-0.7,0.6l1.3-6.8h2.8l-1.3,6.8l-0.5-0.6h2.9L74,81.5l1.3-6.8h2.8l-1.7,8.4H64.7l1.7-8.4h2.8
			l-1.3,6.8l-0.5-0.6H70.2z"/>
		<path class="st0" d="M80.8,83.1l5.4-8.4h2.8l2,8.4h-2.8L86.7,76h1.1l-4.1,7.1H80.8z M83.2,81.7l1.1-2h3.9l0.3,2H83.2z"/>
		<path class="st0" d="M97.2,80.9l-0.7,0.6l1.3-6.8h2.8l-1.3,6.8l-0.5-0.6h2.9l-0.8,0.6l1.3-6.8h2.8l-1.7,8.4H91.7l1.7-8.4h2.8
			l-1.3,6.8l-0.5-0.6H97.2z"/>
		<path class="st0" d="M107.8,83.1l5.4-8.4h2.8l2,8.4h-2.8l-1.4-7.1h1.1l-4.1,7.1H107.8z M110.3,81.7l1.1-2h3.9l0.3,2H110.3z"/>
		<path class="st0" d="M124.3,80.9l-0.7,0.6l1.3-6.8h2.8l-1.3,6.8l-0.5-0.6h2.9l-0.8,0.6l1.3-6.8h2.8l-1.7,8.4h-11.7l1.7-8.4h2.8
			l-1.3,6.8l-0.5-0.6H124.3z"/>
		<path class="st0" d="M134.8,83.1l5.4-8.4h2.8l2,8.4h-2.8l-1.4-7.1h1.1l-4.1,7.1H134.8z M137.3,81.7l1.1-2h3.9l0.3,2H137.3z"/>
		<path class="st0" d="M151.3,80.9l-0.7,0.6l1.3-6.8h2.8l-1.3,6.8l-0.5-0.6h2.9l-0.8,0.6l1.3-6.8h2.8l-1.7,8.4h-11.7l1.7-8.4h2.8
			l-1.3,6.8l-0.5-0.6H151.3z"/>
		<path class="st0" d="M161.8,83.1l5.4-8.4h2.8l2,8.4h-2.8l-1.4-7.1h1.1l-4.1,7.1H161.8z M164.3,81.7l1.1-2h3.9l0.3,2H164.3z"/>
		<path class="st0" d="M178.3,80.9l-0.7,0.6l1.3-6.8h2.8l-1.3,6.8l-0.5-0.6h2.9l-0.8,0.6l1.3-6.8h2.8l-1.7,8.4h-11.7l1.7-8.4h2.8
			l-1.3,6.8l-0.5-0.6H178.3z"/>
		<path class="st0" d="M188.8,83.1l5.4-8.4h2.8l2,8.4h-2.8l-1.4-7.1h1.1l-4.1,7.1H188.8z M191.3,81.7l1.1-2h3.9l0.3,2H191.3z"/>
		<path class="st0" d="M205.3,80.9l-0.7,0.6l1.3-6.8h2.8l-1.3,6.8l-0.5-0.6h2.9l-0.8,0.6l1.3-6.8h2.8l-1.7,8.4h-11.7l1.7-8.4h2.8
			l-1.3,6.8l-0.5-0.6H205.3z"/>
		<path class="st0" d="M215.8,83.1l5.4-8.4h2.8l2,8.4h-2.8l-1.4-7.1h1.1l-4.1,7.1H215.8z M218.3,81.7l1.1-2h3.9l0.3,2H218.3z"/>
		<path class="st0" d="M232.3,80.9l-0.7,0.6l1.3-6.8h2.8l-1.3,6.8l-0.5-0.6h2.9l-0.8,0.6l1.3-6.8h2.8l-1.7,8.4h-11.7l1.7-8.4h2.8
			l-1.3,6.8l-0.5-0.6H232.3z"/>
		<path class="st0" d="M242.8,83.1l5.4-8.4h2.8l2,8.4h-2.8l-1.4-7.1h1.1l-4.1,7.1H242.8z M245.3,81.7l1.1-2h3.9l0.3,2H245.3z"/>
		<path class="st0" d="M259.3,80.9l-0.7,0.6l1.3-6.8h2.8l-1.3,6.8l-0.5-0.6h2.9l-0.8,0.6l1.3-6.8h2.8l-1.7,8.4h-11.7l1.7-8.4h2.8
			l-1.3,6.8l-0.5-0.6H259.3z"/>
		<path class="st0" d="M269.9,83.1l5.4-8.4h2.8l2,8.4h-2.8l-1.4-7.1h1.1l-4.1,7.1H269.9z M272.3,81.7l1.1-2h3.9l0.3,2H272.3z"/>
		<path class="st0" d="M286.3,80.9l-0.7,0.6l1.3-6.8h2.8l-1.3,6.8l-0.5-0.6h2.9l-0.8,0.6l1.3-6.8h2.8l-1.7,8.4h-11.7l1.7-8.4h2.8
			l-1.3,6.8l-0.5-0.6H286.3z"/>
	</g>
	<g>
		<path class="st0" d="M-0.3,97.8l5.4-8.4h2.8l2,8.4H7l-1.4-7.1h1.1l-4.1,7.1H-0.3z M2.2,96.3l1.1-2h3.9l0.3,2H2.2z"/>
		<path class="st0" d="M16.2,95.6l-0.7,0.6l1.3-6.8h2.8l-1.3,6.8l-0.5-0.6h2.9l-0.8,0.6l1.3-6.8H24l-1.7,8.4H10.6l1.7-8.4h2.8
			l-1.3,6.8l-0.5-0.6H16.2z"/>
		<path class="st0" d="M26.7,97.8l5.4-8.4h2.8l2,8.4h-2.8l-1.4-7.1h1.1l-4.1,7.1H26.7z M29.2,96.3l1.1-2h3.9l0.3,2H29.2z"/>
		<path class="st0" d="M43.2,95.6l-0.7,0.6l1.3-6.8h2.8l-1.3,6.8l-0.5-0.6h2.9l-0.8,0.6l1.3-6.8h2.8l-1.7,8.4H37.7l1.7-8.4h2.8
			l-1.3,6.8l-0.5-0.6H43.2z"/>
		<path class="st0" d="M53.8,97.8l5.4-8.4h2.8l2,8.4h-2.8l-1.4-7.1h1.1l-4.1,7.1H53.8z M56.2,96.3l1.1-2h3.9l0.3,2H56.2z"/>
		<path class="st0" d="M70.2,95.6l-0.7,0.6l1.3-6.8h2.8l-1.3,6.8l-0.5-0.6h2.9L74,96.2l1.3-6.8h2.8l-1.7,8.4H64.7l1.7-8.4h2.8
			l-1.3,6.8l-0.5-0.6H70.2z"/>
		<path class="st0" d="M80.8,97.8l5.4-8.4h2.8l2,8.4h-2.8l-1.4-7.1h1.1l-4.1,7.1H80.8z M83.2,96.3l1.1-2h3.9l0.3,2H83.2z"/>
		<path class="st0" d="M97.2,95.6l-0.7,0.6l1.3-6.8h2.8l-1.3,6.8l-0.5-0.6h2.9l-0.8,0.6l1.3-6.8h2.8l-1.7,8.4H91.7l1.7-8.4h2.8
			l-1.3,6.8l-0.5-0.6H97.2z"/>
		<path class="st0" d="M107.8,97.8l5.4-8.4h2.8l2,8.4h-2.8l-1.4-7.1h1.1l-4.1,7.1H107.8z M110.3,96.3l1.1-2h3.9l0.3,2H110.3z"/>
		<path class="st0" d="M124.3,95.6l-0.7,0.6l1.3-6.8h2.8l-1.3,6.8l-0.5-0.6h2.9l-0.8,0.6l1.3-6.8h2.8l-1.7,8.4h-11.7l1.7-8.4h2.8
			l-1.3,6.8l-0.5-0.6H124.3z"/>
		<path class="st0" d="M134.8,97.8l5.4-8.4h2.8l2,8.4h-2.8l-1.4-7.1h1.1l-4.1,7.1H134.8z M137.3,96.3l1.1-2h3.9l0.3,2H137.3z"/>
		<path class="st0" d="M151.3,95.6l-0.7,0.6l1.3-6.8h2.8l-1.3,6.8l-0.5-0.6h2.9l-0.8,0.6l1.3-6.8h2.8l-1.7,8.4h-11.7l1.7-8.4h2.8
			l-1.3,6.8l-0.5-0.6H151.3z"/>
		<path class="st0" d="M161.8,97.8l5.4-8.4h2.8l2,8.4h-2.8l-1.4-7.1h1.1l-4.1,7.1H161.8z M164.3,96.3l1.1-2h3.9l0.3,2H164.3z"/>
		<path class="st0" d="M178.3,95.6l-0.7,0.6l1.3-6.8h2.8l-1.3,6.8l-0.5-0.6h2.9l-0.8,0.6l1.3-6.8h2.8l-1.7,8.4h-11.7l1.7-8.4h2.8
			l-1.3,6.8l-0.5-0.6H178.3z"/>
		<path class="st0" d="M188.8,97.8l5.4-8.4h2.8l2,8.4h-2.8l-1.4-7.1h1.1l-4.1,7.1H188.8z M191.3,96.3l1.1-2h3.9l0.3,2H191.3z"/>
		<path class="st0" d="M205.3,95.6l-0.7,0.6l1.3-6.8h2.8l-1.3,6.8l-0.5-0.6h2.9l-0.8,0.6l1.3-6.8h2.8l-1.7,8.4h-11.7l1.7-8.4h2.8
			l-1.3,6.8l-0.5-0.6H205.3z"/>
		<path class="st0" d="M215.8,97.8l5.4-8.4h2.8l2,8.4h-2.8l-1.4-7.1h1.1l-4.1,7.1H215.8z M218.3,96.3l1.1-2h3.9l0.3,2H218.3z"/>
		<path class="st0" d="M232.3,95.6l-0.7,0.6l1.3-6.8h2.8l-1.3,6.8l-0.5-0.6h2.9l-0.8,0.6l1.3-6.8h2.8l-1.7,8.4h-11.7l1.7-8.4h2.8
			l-1.3,6.8l-0.5-0.6H232.3z"/>
		<path class="st0" d="M242.8,97.8l5.4-8.4h2.8l2,8.4h-2.8l-1.4-7.1h1.1l-4.1,7.1H242.8z M245.3,96.3l1.1-2h3.9l0.3,2H245.3z"/>
		<path class="st0" d="M259.3,95.6l-0.7,0.6l1.3-6.8h2.8l-1.3,6.8l-0.5-0.6h2.9l-0.8,0.6l1.3-6.8h2.8l-1.7,8.4h-11.7l1.7-8.4h2.8
			l-1.3,6.8l-0.5-0.6H259.3z"/>
		<path class="st0" d="M269.9,97.8l5.4-8.4h2.8l2,8.4h-2.8l-1.4-7.1h1.1l-4.1,7.1H269.9z M272.3,96.3l1.1-2h3.9l0.3,2H272.3z"/>
		<path class="st0" d="M286.3,95.6l-0.7,0.6l1.3-6.8h2.8l-1.3,6.8l-0.5-0.6h2.9l-0.8,0.6l1.3-6.8h2.8l-1.7,8.4h-11.7l1.7-8.4h2.8
			l-1.3,6.8l-0.5-0.6H286.3z"/>
	</g>
	<g>
		<path class="st0" d="M-0.3,112.5l5.4-8.4h2.8l2,8.4H7l-1.4-7.1h1.1l-4.1,7.1H-0.3z M2.2,111l1.1-2h3.9l0.3,2H2.2z"/>
		<path class="st0" d="M16.2,110.3l-0.7,0.6l1.3-6.8h2.8l-1.3,6.8l-0.5-0.6h2.9l-0.8,0.6l1.3-6.8H24l-1.7,8.4H10.6l1.7-8.4h2.8
			l-1.3,6.8l-0.5-0.6H16.2z"/>
		<path class="st0" d="M26.7,112.5l5.4-8.4h2.8l2,8.4h-2.8l-1.4-7.1h1.1l-4.1,7.1H26.7z M29.2,111l1.1-2h3.9l0.3,2H29.2z"/>
		<path class="st0" d="M43.2,110.3l-0.7,0.6l1.3-6.8h2.8l-1.3,6.8l-0.5-0.6h2.9l-0.8,0.6l1.3-6.8h2.8l-1.7,8.4H37.7l1.7-8.4h2.8
			l-1.3,6.8l-0.5-0.6H43.2z"/>
		<path class="st0" d="M53.8,112.5l5.4-8.4h2.8l2,8.4h-2.8l-1.4-7.1h1.1l-4.1,7.1H53.8z M56.2,111l1.1-2h3.9l0.3,2H56.2z"/>
		<path class="st0" d="M70.2,110.3l-0.7,0.6l1.3-6.8h2.8l-1.3,6.8l-0.5-0.6h2.9l-0.8,0.6l1.3-6.8h2.8l-1.7,8.4H64.7l1.7-8.4h2.8
			l-1.3,6.8l-0.5-0.6H70.2z"/>
		<path class="st0" d="M80.8,112.5l5.4-8.4h2.8l2,8.4h-2.8l-1.4-7.1h1.1l-4.1,7.1H80.8z M83.2,111l1.1-2h3.9l0.3,2H83.2z"/>
		<path class="st0" d="M97.2,110.3l-0.7,0.6l1.3-6.8h2.8l-1.3,6.8l-0.5-0.6h2.9l-0.8,0.6l1.3-6.8h2.8l-1.7,8.4H91.7l1.7-8.4h2.8
			l-1.3,6.8l-0.5-0.6H97.2z"/>
		<path class="st0" d="M107.8,112.5l5.4-8.4h2.8l2,8.4h-2.8l-1.4-7.1h1.1l-4.1,7.1H107.8z M110.3,111l1.1-2h3.9l0.3,2H110.3z"/>
		<path class="st0" d="M124.3,110.3l-0.7,0.6l1.3-6.8h2.8l-1.3,6.8l-0.5-0.6h2.9l-0.8,0.6l1.3-6.8h2.8l-1.7,8.4h-11.7l1.7-8.4h2.8
			l-1.3,6.8l-0.5-0.6H124.3z"/>
		<path class="st0" d="M134.8,112.5l5.4-8.4h2.8l2,8.4h-2.8l-1.4-7.1h1.1l-4.1,7.1H134.8z M137.3,111l1.1-2h3.9l0.3,2H137.3z"/>
		<path class="st0" d="M151.3,110.3l-0.7,0.6l1.3-6.8h2.8l-1.3,6.8l-0.5-0.6h2.9l-0.8,0.6l1.3-6.8h2.8l-1.7,8.4h-11.7l1.7-8.4h2.8
			l-1.3,6.8l-0.5-0.6H151.3z"/>
		<path class="st0" d="M161.8,112.5l5.4-8.4h2.8l2,8.4h-2.8l-1.4-7.1h1.1l-4.1,7.1H161.8z M164.3,111l1.1-2h3.9l0.3,2H164.3z"/>
		<path class="st0" d="M178.3,110.3l-0.7,0.6l1.3-6.8h2.8l-1.3,6.8l-0.5-0.6h2.9l-0.8,0.6l1.3-6.8h2.8l-1.7,8.4h-11.7l1.7-8.4h2.8
			l-1.3,6.8l-0.5-0.6H178.3z"/>
		<path class="st0" d="M188.8,112.5l5.4-8.4h2.8l2,8.4h-2.8l-1.4-7.1h1.1l-4.1,7.1H188.8z M191.3,111l1.1-2h3.9l0.3,2H191.3z"/>
		<path class="st0" d="M205.3,110.3l-0.7,0.6l1.3-6.8h2.8l-1.3,6.8l-0.5-0.6h2.9l-0.8,0.6l1.3-6.8h2.8l-1.7,8.4h-11.7l1.7-8.4h2.8
			l-1.3,6.8l-0.5-0.6H205.3z"/>
		<path class="st0" d="M215.8,112.5l5.4-8.4h2.8l2,8.4h-2.8l-1.4-7.1h1.1l-4.1,7.1H215.8z M218.3,111l1.1-2h3.9l0.3,2H218.3z"/>
		<path class="st0" d="M232.3,110.3l-0.7,0.6l1.3-6.8h2.8l-1.3,6.8l-0.5-0.6h2.9l-0.8,0.6l1.3-6.8h2.8l-1.7,8.4h-11.7l1.7-8.4h2.8
			l-1.3,6.8l-0.5-0.6H232.3z"/>
		<path class="st0" d="M242.8,112.5l5.4-8.4h2.8l2,8.4h-2.8l-1.4-7.1h1.1l-4.1,7.1H242.8z M245.3,111l1.1-2h3.9l0.3,2H245.3z"/>
		<path class="st0" d="M259.3,110.3l-0.7,0.6l1.3-6.8h2.8l-1.3,6.8l-0.5-0.6h2.9l-0.8,0.6l1.3-6.8h2.8l-1.7,8.4h-11.7l1.7-8.4h2.8
			l-1.3,6.8l-0.5-0.6H259.3z"/>
		<path class="st0" d="M269.9,112.5l5.4-8.4h2.8l2,8.4h-2.8l-1.4-7.1h1.1l-4.1,7.1H269.9z M272.3,111l1.1-2h3.9l0.3,2H272.3z"/>
		<path class="st0" d="M286.3,110.3l-0.7,0.6l1.3-6.8h2.8l-1.3,6.8l-0.5-0.6h2.9l-0.8,0.6l1.3-6.8h2.8l-1.7,8.4h-11.7l1.7-8.4h2.8
			l-1.3,6.8l-0.5-0.6H286.3z"/>
	</g>
	<g>
		<path class="st0" d="M-0.3,127.1l5.4-8.4h2.8l2,8.4H7L5.7,120h1.1l-4.1,7.1H-0.3z M2.2,125.7l1.1-2h3.9l0.3,2H2.2z"/>
		<path class="st0" d="M16.2,124.9l-0.7,0.6l1.3-6.8h2.8l-1.3,6.8l-0.5-0.6h2.9l-0.8,0.6l1.3-6.8H24l-1.7,8.4H10.6l1.7-8.4h2.8
			l-1.3,6.8l-0.5-0.6H16.2z"/>
		<path class="st0" d="M26.7,127.1l5.4-8.4h2.8l2,8.4h-2.8l-1.4-7.1h1.1l-4.1,7.1H26.7z M29.2,125.7l1.1-2h3.9l0.3,2H29.2z"/>
		<path class="st0" d="M43.2,124.9l-0.7,0.6l1.3-6.8h2.8l-1.3,6.8l-0.5-0.6h2.9l-0.8,0.6l1.3-6.8h2.8l-1.7,8.4H37.7l1.7-8.4h2.8
			l-1.3,6.8l-0.5-0.6H43.2z"/>
		<path class="st0" d="M53.8,127.1l5.4-8.4h2.8l2,8.4h-2.8l-1.4-7.1h1.1l-4.1,7.1H53.8z M56.2,125.7l1.1-2h3.9l0.3,2H56.2z"/>
		<path class="st0" d="M70.2,124.9l-0.7,0.6l1.3-6.8h2.8l-1.3,6.8l-0.5-0.6h2.9l-0.8,0.6l1.3-6.8h2.8l-1.7,8.4H64.7l1.7-8.4h2.8
			l-1.3,6.8l-0.5-0.6H70.2z"/>
		<path class="st0" d="M80.8,127.1l5.4-8.4h2.8l2,8.4h-2.8l-1.4-7.1h1.1l-4.1,7.1H80.8z M83.2,125.7l1.1-2h3.9l0.3,2H83.2z"/>
		<path class="st0" d="M97.2,124.9l-0.7,0.6l1.3-6.8h2.8l-1.3,6.8l-0.5-0.6h2.9l-0.8,0.6l1.3-6.8h2.8l-1.7,8.4H91.7l1.7-8.4h2.8
			l-1.3,6.8l-0.5-0.6H97.2z"/>
		<path class="st0" d="M107.8,127.1l5.4-8.4h2.8l2,8.4h-2.8l-1.4-7.1h1.1l-4.1,7.1H107.8z M110.3,125.7l1.1-2h3.9l0.3,2H110.3z"/>
		<path class="st0" d="M124.3,124.9l-0.7,0.6l1.3-6.8h2.8l-1.3,6.8l-0.5-0.6h2.9l-0.8,0.6l1.3-6.8h2.8l-1.7,8.4h-11.7l1.7-8.4h2.8
			l-1.3,6.8l-0.5-0.6H124.3z"/>
		<path class="st0" d="M134.8,127.1l5.4-8.4h2.8l2,8.4h-2.8l-1.4-7.1h1.1l-4.1,7.1H134.8z M137.3,125.7l1.1-2h3.9l0.3,2H137.3z"/>
		<path class="st0" d="M151.3,124.9l-0.7,0.6l1.3-6.8h2.8l-1.3,6.8l-0.5-0.6h2.9l-0.8,0.6l1.3-6.8h2.8l-1.7,8.4h-11.7l1.7-8.4h2.8
			l-1.3,6.8l-0.5-0.6H151.3z"/>
		<path class="st0" d="M161.8,127.1l5.4-8.4h2.8l2,8.4h-2.8l-1.4-7.1h1.1l-4.1,7.1H161.8z M164.3,125.7l1.1-2h3.9l0.3,2H164.3z"/>
		<path class="st0" d="M178.3,124.9l-0.7,0.6l1.3-6.8h2.8l-1.3,6.8l-0.5-0.6h2.9l-0.8,0.6l1.3-6.8h2.8l-1.7,8.4h-11.7l1.7-8.4h2.8
			l-1.3,6.8l-0.5-0.6H178.3z"/>
		<path class="st0" d="M188.8,127.1l5.4-8.4h2.8l2,8.4h-2.8l-1.4-7.1h1.1l-4.1,7.1H188.8z M191.3,125.7l1.1-2h3.9l0.3,2H191.3z"/>
		<path class="st0" d="M205.3,124.9l-0.7,0.6l1.3-6.8h2.8l-1.3,6.8l-0.5-0.6h2.9l-0.8,0.6l1.3-6.8h2.8l-1.7,8.4h-11.7l1.7-8.4h2.8
			l-1.3,6.8l-0.5-0.6H205.3z"/>
		<path class="st0" d="M215.8,127.1l5.4-8.4h2.8l2,8.4h-2.8l-1.4-7.1h1.1l-4.1,7.1H215.8z M218.3,125.7l1.1-2h3.9l0.3,2H218.3z"/>
		<path class="st0" d="M232.3,124.9l-0.7,0.6l1.3-6.8h2.8l-1.3,6.8l-0.5-0.6h2.9l-0.8,0.6l1.3-6.8h2.8l-1.7,8.4h-11.7l1.7-8.4h2.8
			l-1.3,6.8l-0.5-0.6H232.3z"/>
		<path class="st0" d="M242.8,127.1l5.4-8.4h2.8l2,8.4h-2.8l-1.4-7.1h1.1l-4.1,7.1H242.8z M245.3,125.7l1.1-2h3.9l0.3,2H245.3z"/>
		<path class="st0" d="M259.3,124.9l-0.7,0.6l1.3-6.8h2.8l-1.3,6.8l-0.5-0.6h2.9l-0.8,0.6l1.3-6.8h2.8l-1.7,8.4h-11.7l1.7-8.4h2.8
			l-1.3,6.8l-0.5-0.6H259.3z"/>
		<path class="st0" d="M269.9,127.1l5.4-8.4h2.8l2,8.4h-2.8l-1.4-7.1h1.1l-4.1,7.1H269.9z M272.3,125.7l1.1-2h3.9l0.3,2H272.3z"/>
		<path class="st0" d="M286.3,124.9l-0.7,0.6l1.3-6.8h2.8l-1.3,6.8l-0.5-0.6h2.9l-0.8,0.6l1.3-6.8h2.8l-1.7,8.4h-11.7l1.7-8.4h2.8
			l-1.3,6.8l-0.5-0.6H286.3z"/>
	</g>
	<g>
		<path class="st0" d="M-0.3,141.8l5.4-8.4h2.8l2,8.4H7l-1.4-7.1h1.1l-4.1,7.1H-0.3z M2.2,140.3l1.1-2h3.9l0.3,2H2.2z"/>
		<path class="st0" d="M16.2,139.6l-0.7,0.6l1.3-6.8h2.8l-1.3,6.8l-0.5-0.6h2.9l-0.8,0.6l1.3-6.8H24l-1.7,8.4H10.6l1.7-8.4h2.8
			l-1.3,6.8l-0.5-0.6H16.2z"/>
		<path class="st0" d="M26.7,141.8l5.4-8.4h2.8l2,8.4h-2.8l-1.4-7.1h1.1l-4.1,7.1H26.7z M29.2,140.3l1.1-2h3.9l0.3,2H29.2z"/>
		<path class="st0" d="M43.2,139.6l-0.7,0.6l1.3-6.8h2.8l-1.3,6.8l-0.5-0.6h2.9l-0.8,0.6l1.3-6.8h2.8l-1.7,8.4H37.7l1.7-8.4h2.8
			l-1.3,6.8l-0.5-0.6H43.2z"/>
		<path class="st0" d="M53.8,141.8l5.4-8.4h2.8l2,8.4h-2.8l-1.4-7.1h1.1l-4.1,7.1H53.8z M56.2,140.3l1.1-2h3.9l0.3,2H56.2z"/>
		<path class="st0" d="M70.2,139.6l-0.7,0.6l1.3-6.8h2.8l-1.3,6.8l-0.5-0.6h2.9l-0.8,0.6l1.3-6.8h2.8l-1.7,8.4H64.7l1.7-8.4h2.8
			l-1.3,6.8l-0.5-0.6H70.2z"/>
		<path class="st0" d="M80.8,141.8l5.4-8.4h2.8l2,8.4h-2.8l-1.4-7.1h1.1l-4.1,7.1H80.8z M83.2,140.3l1.1-2h3.9l0.3,2H83.2z"/>
		<path class="st0" d="M97.2,139.6l-0.7,0.6l1.3-6.8h2.8l-1.3,6.8l-0.5-0.6h2.9l-0.8,0.6l1.3-6.8h2.8l-1.7,8.4H91.7l1.7-8.4h2.8
			l-1.3,6.8l-0.5-0.6H97.2z"/>
		<path class="st0" d="M107.8,141.8l5.4-8.4h2.8l2,8.4h-2.8l-1.4-7.1h1.1l-4.1,7.1H107.8z M110.3,140.3l1.1-2h3.9l0.3,2H110.3z"/>
		<path class="st0" d="M124.3,139.6l-0.7,0.6l1.3-6.8h2.8l-1.3,6.8l-0.5-0.6h2.9l-0.8,0.6l1.3-6.8h2.8l-1.7,8.4h-11.7l1.7-8.4h2.8
			l-1.3,6.8l-0.5-0.6H124.3z"/>
		<path class="st0" d="M134.8,141.8l5.4-8.4h2.8l2,8.4h-2.8l-1.4-7.1h1.1l-4.1,7.1H134.8z M137.3,140.3l1.1-2h3.9l0.3,2H137.3z"/>
		<path class="st0" d="M151.3,139.6l-0.7,0.6l1.3-6.8h2.8l-1.3,6.8l-0.5-0.6h2.9l-0.8,0.6l1.3-6.8h2.8l-1.7,8.4h-11.7l1.7-8.4h2.8
			l-1.3,6.8l-0.5-0.6H151.3z"/>
		<path class="st0" d="M161.8,141.8l5.4-8.4h2.8l2,8.4h-2.8l-1.4-7.1h1.1l-4.1,7.1H161.8z M164.3,140.3l1.1-2h3.9l0.3,2H164.3z"/>
		<path class="st0" d="M178.3,139.6l-0.7,0.6l1.3-6.8h2.8l-1.3,6.8l-0.5-0.6h2.9l-0.8,0.6l1.3-6.8h2.8l-1.7,8.4h-11.7l1.7-8.4h2.8
			l-1.3,6.8l-0.5-0.6H178.3z"/>
		<path class="st0" d="M188.8,141.8l5.4-8.4h2.8l2,8.4h-2.8l-1.4-7.1h1.1l-4.1,7.1H188.8z M191.3,140.3l1.1-2h3.9l0.3,2H191.3z"/>
		<path class="st0" d="M205.3,139.6l-0.7,0.6l1.3-6.8h2.8l-1.3,6.8l-0.5-0.6h2.9l-0.8,0.6l1.3-6.8h2.8l-1.7,8.4h-11.7l1.7-8.4h2.8
			l-1.3,6.8l-0.5-0.6H205.3z"/>
		<path class="st0" d="M215.8,141.8l5.4-8.4h2.8l2,8.4h-2.8l-1.4-7.1h1.1l-4.1,7.1H215.8z M218.3,140.3l1.1-2h3.9l0.3,2H218.3z"/>
		<path class="st0" d="M232.3,139.6l-0.7,0.6l1.3-6.8h2.8l-1.3,6.8l-0.5-0.6h2.9l-0.8,0.6l1.3-6.8h2.8l-1.7,8.4h-11.7l1.7-8.4h2.8
			l-1.3,6.8l-0.5-0.6H232.3z"/>
		<path class="st0" d="M242.8,141.8l5.4-8.4h2.8l2,8.4h-2.8l-1.4-7.1h1.1l-4.1,7.1H242.8z M245.3,140.3l1.1-2h3.9l0.3,2H245.3z"/>
		<path class="st0" d="M259.3,139.6l-0.7,0.6l1.3-6.8h2.8l-1.3,6.8l-0.5-0.6h2.9l-0.8,0.6l1.3-6.8h2.8l-1.7,8.4h-11.7l1.7-8.4h2.8
			l-1.3,6.8l-0.5-0.6H259.3z"/>
		<path class="st0" d="M269.9,141.8l5.4-8.4h2.8l2,8.4h-2.8l-1.4-7.1h1.1l-4.1,7.1H269.9z M272.3,140.3l1.1-2h3.9l0.3,2H272.3z"/>
		<path class="st0" d="M286.3,139.6l-0.7,0.6l1.3-6.8h2.8l-1.3,6.8l-0.5-0.6h2.9l-0.8,0.6l1.3-6.8h2.8l-1.7,8.4h-11.7l1.7-8.4h2.8
			l-1.3,6.8l-0.5-0.6H286.3z"/>
	</g>
	<g>
		<path class="st0" d="M-0.3,156.5l5.4-8.4h2.8l2,8.4H7l-1.4-7.1h1.1l-4.1,7.1H-0.3z M2.2,155l1.1-2h3.9l0.3,2H2.2z"/>
		<path class="st0" d="M16.2,154.3l-0.7,0.6l1.3-6.8h2.8l-1.3,6.8l-0.5-0.6h2.9l-0.8,0.6l1.3-6.8H24l-1.7,8.4H10.6l1.7-8.4h2.8
			l-1.3,6.8l-0.5-0.6H16.2z"/>
		<path class="st0" d="M26.7,156.5l5.4-8.4h2.8l2,8.4h-2.8l-1.4-7.1h1.1l-4.1,7.1H26.7z M29.2,155l1.1-2h3.9l0.3,2H29.2z"/>
		<path class="st0" d="M43.2,154.3l-0.7,0.6l1.3-6.8h2.8l-1.3,6.8l-0.5-0.6h2.9l-0.8,0.6l1.3-6.8h2.8l-1.7,8.4H37.7l1.7-8.4h2.8
			l-1.3,6.8l-0.5-0.6H43.2z"/>
		<path class="st0" d="M53.8,156.5l5.4-8.4h2.8l2,8.4h-2.8l-1.4-7.1h1.1l-4.1,7.1H53.8z M56.2,155l1.1-2h3.9l0.3,2H56.2z"/>
		<path class="st0" d="M70.2,154.3l-0.7,0.6l1.3-6.8h2.8l-1.3,6.8l-0.5-0.6h2.9l-0.8,0.6l1.3-6.8h2.8l-1.7,8.4H64.7l1.7-8.4h2.8
			l-1.3,6.8l-0.5-0.6H70.2z"/>
		<path class="st0" d="M80.8,156.5l5.4-8.4h2.8l2,8.4h-2.8l-1.4-7.1h1.1l-4.1,7.1H80.8z M83.2,155l1.1-2h3.9l0.3,2H83.2z"/>
		<path class="st0" d="M97.2,154.3l-0.7,0.6l1.3-6.8h2.8l-1.3,6.8l-0.5-0.6h2.9l-0.8,0.6l1.3-6.8h2.8l-1.7,8.4H91.7l1.7-8.4h2.8
			l-1.3,6.8l-0.5-0.6H97.2z"/>
		<path class="st0" d="M107.8,156.5l5.4-8.4h2.8l2,8.4h-2.8l-1.4-7.1h1.1l-4.1,7.1H107.8z M110.3,155l1.1-2h3.9l0.3,2H110.3z"/>
		<path class="st0" d="M124.3,154.3l-0.7,0.6l1.3-6.8h2.8l-1.3,6.8l-0.5-0.6h2.9l-0.8,0.6l1.3-6.8h2.8l-1.7,8.4h-11.7l1.7-8.4h2.8
			l-1.3,6.8l-0.5-0.6H124.3z"/>
		<path class="st0" d="M134.8,156.5l5.4-8.4h2.8l2,8.4h-2.8l-1.4-7.1h1.1l-4.1,7.1H134.8z M137.3,155l1.1-2h3.9l0.3,2H137.3z"/>
		<path class="st0" d="M151.3,154.3l-0.7,0.6l1.3-6.8h2.8l-1.3,6.8l-0.5-0.6h2.9l-0.8,0.6l1.3-6.8h2.8l-1.7,8.4h-11.7l1.7-8.4h2.8
			l-1.3,6.8l-0.5-0.6H151.3z"/>
		<path class="st0" d="M161.8,156.5l5.4-8.4h2.8l2,8.4h-2.8l-1.4-7.1h1.1l-4.1,7.1H161.8z M164.3,155l1.1-2h3.9l0.3,2H164.3z"/>
		<path class="st0" d="M178.3,154.3l-0.7,0.6l1.3-6.8h2.8l-1.3,6.8l-0.5-0.6h2.9l-0.8,0.6l1.3-6.8h2.8l-1.7,8.4h-11.7l1.7-8.4h2.8
			l-1.3,6.8l-0.5-0.6H178.3z"/>
		<path class="st0" d="M188.8,156.5l5.4-8.4h2.8l2,8.4h-2.8l-1.4-7.1h1.1l-4.1,7.1H188.8z M191.3,155l1.1-2h3.9l0.3,2H191.3z"/>
		<path class="st0" d="M205.3,154.3l-0.7,0.6l1.3-6.8h2.8l-1.3,6.8l-0.5-0.6h2.9l-0.8,0.6l1.3-6.8h2.8l-1.7,8.4h-11.7l1.7-8.4h2.8
			l-1.3,6.8l-0.5-0.6H205.3z"/>
		<path class="st0" d="M215.8,156.5l5.4-8.4h2.8l2,8.4h-2.8l-1.4-7.1h1.1l-4.1,7.1H215.8z M218.3,155l1.1-2h3.9l0.3,2H218.3z"/>
		<path class="st0" d="M232.3,154.3l-0.7,0.6l1.3-6.8h2.8l-1.3,6.8l-0.5-0.6h2.9l-0.8,0.6l1.3-6.8h2.8l-1.7,8.4h-11.7l1.7-8.4h2.8
			l-1.3,6.8l-0.5-0.6H232.3z"/>
		<path class="st0" d="M242.8,156.5l5.4-8.4h2.8l2,8.4h-2.8l-1.4-7.1h1.1l-4.1,7.1H242.8z M245.3,155l1.1-2h3.9l0.3,2H245.3z"/>
		<path class="st0" d="M259.3,154.3l-0.7,0.6l1.3-6.8h2.8l-1.3,6.8l-0.5-0.6h2.9l-0.8,0.6l1.3-6.8h2.8l-1.7,8.4h-11.7l1.7-8.4h2.8
			l-1.3,6.8l-0.5-0.6H259.3z"/>
		<path class="st0" d="M269.9,156.5l5.4-8.4h2.8l2,8.4h-2.8l-1.4-7.1h1.1l-4.1,7.1H269.9z M272.3,155l1.1-2h3.9l0.3,2H272.3z"/>
		<path class="st0" d="M286.3,154.3l-0.7,0.6l1.3-6.8h2.8l-1.3,6.8l-0.5-0.6h2.9l-0.8,0.6l1.3-6.8h2.8l-1.7,8.4h-11.7l1.7-8.4h2.8
			l-1.3,6.8l-0.5-0.6H286.3z"/>
	</g>
	<g>
		<path class="st0" d="M-0.3,171.1l5.4-8.4h2.8l2,8.4H7L5.7,164h1.1l-4.1,7.1H-0.3z M2.2,169.7l1.1-2h3.9l0.3,2H2.2z"/>
		<path class="st0" d="M16.2,168.9l-0.7,0.6l1.3-6.8h2.8l-1.3,6.8l-0.5-0.6h2.9l-0.8,0.6l1.3-6.8H24l-1.7,8.4H10.6l1.7-8.4h2.8
			l-1.3,6.8l-0.5-0.6H16.2z"/>
		<path class="st0" d="M26.7,171.1l5.4-8.4h2.8l2,8.4h-2.8l-1.4-7.1h1.1l-4.1,7.1H26.7z M29.2,169.7l1.1-2h3.9l0.3,2H29.2z"/>
		<path class="st0" d="M43.2,168.9l-0.7,0.6l1.3-6.8h2.8l-1.3,6.8l-0.5-0.6h2.9l-0.8,0.6l1.3-6.8h2.8l-1.7,8.4H37.7l1.7-8.4h2.8
			l-1.3,6.8l-0.5-0.6H43.2z"/>
		<path class="st0" d="M53.8,171.1l5.4-8.4h2.8l2,8.4h-2.8l-1.4-7.1h1.1l-4.1,7.1H53.8z M56.2,169.7l1.1-2h3.9l0.3,2H56.2z"/>
		<path class="st0" d="M70.2,168.9l-0.7,0.6l1.3-6.8h2.8l-1.3,6.8l-0.5-0.6h2.9l-0.8,0.6l1.3-6.8h2.8l-1.7,8.4H64.7l1.7-8.4h2.8
			l-1.3,6.8l-0.5-0.6H70.2z"/>
		<path class="st0" d="M80.8,171.1l5.4-8.4h2.8l2,8.4h-2.8l-1.4-7.1h1.1l-4.1,7.1H80.8z M83.2,169.7l1.1-2h3.9l0.3,2H83.2z"/>
		<path class="st0" d="M97.2,168.9l-0.7,0.6l1.3-6.8h2.8l-1.3,6.8l-0.5-0.6h2.9l-0.8,0.6l1.3-6.8h2.8l-1.7,8.4H91.7l1.7-8.4h2.8
			l-1.3,6.8l-0.5-0.6H97.2z"/>
		<path class="st0" d="M107.8,171.1l5.4-8.4h2.8l2,8.4h-2.8l-1.4-7.1h1.1l-4.1,7.1H107.8z M110.3,169.7l1.1-2h3.9l0.3,2H110.3z"/>
		<path class="st0" d="M124.3,168.9l-0.7,0.6l1.3-6.8h2.8l-1.3,6.8l-0.5-0.6h2.9l-0.8,0.6l1.3-6.8h2.8l-1.7,8.4h-11.7l1.7-8.4h2.8
			l-1.3,6.8l-0.5-0.6H124.3z"/>
		<path class="st0" d="M134.8,171.1l5.4-8.4h2.8l2,8.4h-2.8l-1.4-7.1h1.1l-4.1,7.1H134.8z M137.3,169.7l1.1-2h3.9l0.3,2H137.3z"/>
		<path class="st0" d="M151.3,168.9l-0.7,0.6l1.3-6.8h2.8l-1.3,6.8l-0.5-0.6h2.9l-0.8,0.6l1.3-6.8h2.8l-1.7,8.4h-11.7l1.7-8.4h2.8
			l-1.3,6.8l-0.5-0.6H151.3z"/>
		<path class="st0" d="M161.8,171.1l5.4-8.4h2.8l2,8.4h-2.8l-1.4-7.1h1.1l-4.1,7.1H161.8z M164.3,169.7l1.1-2h3.9l0.3,2H164.3z"/>
		<path class="st0" d="M178.3,168.9l-0.7,0.6l1.3-6.8h2.8l-1.3,6.8l-0.5-0.6h2.9l-0.8,0.6l1.3-6.8h2.8l-1.7,8.4h-11.7l1.7-8.4h2.8
			l-1.3,6.8l-0.5-0.6H178.3z"/>
		<path class="st0" d="M188.8,171.1l5.4-8.4h2.8l2,8.4h-2.8l-1.4-7.1h1.1l-4.1,7.1H188.8z M191.3,169.7l1.1-2h3.9l0.3,2H191.3z"/>
		<path class="st0" d="M205.3,168.9l-0.7,0.6l1.3-6.8h2.8l-1.3,6.8l-0.5-0.6h2.9l-0.8,0.6l1.3-6.8h2.8l-1.7,8.4h-11.7l1.7-8.4h2.8
			l-1.3,6.8l-0.5-0.6H205.3z"/>
		<path class="st0" d="M215.8,171.1l5.4-8.4h2.8l2,8.4h-2.8l-1.4-7.1h1.1l-4.1,7.1H215.8z M218.3,169.7l1.1-2h3.9l0.3,2H218.3z"/>
		<path class="st0" d="M232.3,168.9l-0.7,0.6l1.3-6.8h2.8l-1.3,6.8l-0.5-0.6h2.9l-0.8,0.6l1.3-6.8h2.8l-1.7,8.4h-11.7l1.7-8.4h2.8
			l-1.3,6.8l-0.5-0.6H232.3z"/>
		<path class="st0" d="M242.8,171.1l5.4-8.4h2.8l2,8.4h-2.8l-1.4-7.1h1.1l-4.1,7.1H242.8z M245.3,169.7l1.1-2h3.9l0.3,2H245.3z"/>
		<path class="st0" d="M259.3,168.9l-0.7,0.6l1.3-6.8h2.8l-1.3,6.8l-0.5-0.6h2.9l-0.8,0.6l1.3-6.8h2.8l-1.7,8.4h-11.7l1.7-8.4h2.8
			l-1.3,6.8l-0.5-0.6H259.3z"/>
		<path class="st0" d="M269.9,171.1l5.4-8.4h2.8l2,8.4h-2.8l-1.4-7.1h1.1l-4.1,7.1H269.9z M272.3,169.7l1.1-2h3.9l0.3,2H272.3z"/>
		<path class="st0" d="M286.3,168.9l-0.7,0.6l1.3-6.8h2.8l-1.3,6.8l-0.5-0.6h2.9l-0.8,0.6l1.3-6.8h2.8l-1.7,8.4h-11.7l1.7-8.4h2.8
			l-1.3,6.8l-0.5-0.6H286.3z"/>
	</g>
	<g>
		<path class="st0" d="M-0.3,185.8l5.4-8.4h2.8l2,8.4H7l-1.4-7.1h1.1l-4.1,7.1H-0.3z M2.2,184.3l1.1-2h3.9l0.3,2H2.2z"/>
		<path class="st0" d="M16.2,183.6l-0.7,0.6l1.3-6.8h2.8l-1.3,6.8l-0.5-0.6h2.9l-0.8,0.6l1.3-6.8H24l-1.7,8.4H10.6l1.7-8.4h2.8
			l-1.3,6.8l-0.5-0.6H16.2z"/>
		<path class="st0" d="M26.7,185.8l5.4-8.4h2.8l2,8.4h-2.8l-1.4-7.1h1.1l-4.1,7.1H26.7z M29.2,184.3l1.1-2h3.9l0.3,2H29.2z"/>
		<path class="st0" d="M43.2,183.6l-0.7,0.6l1.3-6.8h2.8l-1.3,6.8l-0.5-0.6h2.9l-0.8,0.6l1.3-6.8h2.8l-1.7,8.4H37.7l1.7-8.4h2.8
			l-1.3,6.8l-0.5-0.6H43.2z"/>
		<path class="st0" d="M53.8,185.8l5.4-8.4h2.8l2,8.4h-2.8l-1.4-7.1h1.1l-4.1,7.1H53.8z M56.2,184.3l1.1-2h3.9l0.3,2H56.2z"/>
		<path class="st0" d="M70.2,183.6l-0.7,0.6l1.3-6.8h2.8l-1.3,6.8l-0.5-0.6h2.9l-0.8,0.6l1.3-6.8h2.8l-1.7,8.4H64.7l1.7-8.4h2.8
			l-1.3,6.8l-0.5-0.6H70.2z"/>
		<path class="st0" d="M80.8,185.8l5.4-8.4h2.8l2,8.4h-2.8l-1.4-7.1h1.1l-4.1,7.1H80.8z M83.2,184.3l1.1-2h3.9l0.3,2H83.2z"/>
		<path class="st0" d="M97.2,183.6l-0.7,0.6l1.3-6.8h2.8l-1.3,6.8l-0.5-0.6h2.9l-0.8,0.6l1.3-6.8h2.8l-1.7,8.4H91.7l1.7-8.4h2.8
			l-1.3,6.8l-0.5-0.6H97.2z"/>
		<path class="st0" d="M107.8,185.8l5.4-8.4h2.8l2,8.4h-2.8l-1.4-7.1h1.1l-4.1,7.1H107.8z M110.3,184.3l1.1-2h3.9l0.3,2H110.3z"/>
		<path class="st0" d="M124.3,183.6l-0.7,0.6l1.3-6.8h2.8l-1.3,6.8l-0.5-0.6h2.9l-0.8,0.6l1.3-6.8h2.8l-1.7,8.4h-11.7l1.7-8.4h2.8
			l-1.3,6.8l-0.5-0.6H124.3z"/>
		<path class="st0" d="M134.8,185.8l5.4-8.4h2.8l2,8.4h-2.8l-1.4-7.1h1.1l-4.1,7.1H134.8z M137.3,184.3l1.1-2h3.9l0.3,2H137.3z"/>
		<path class="st0" d="M151.3,183.6l-0.7,0.6l1.3-6.8h2.8l-1.3,6.8l-0.5-0.6h2.9l-0.8,0.6l1.3-6.8h2.8l-1.7,8.4h-11.7l1.7-8.4h2.8
			l-1.3,6.8l-0.5-0.6H151.3z"/>
		<path class="st0" d="M161.8,185.8l5.4-8.4h2.8l2,8.4h-2.8l-1.4-7.1h1.1l-4.1,7.1H161.8z M164.3,184.3l1.1-2h3.9l0.3,2H164.3z"/>
		<path class="st0" d="M178.3,183.6l-0.7,0.6l1.3-6.8h2.8l-1.3,6.8l-0.5-0.6h2.9l-0.8,0.6l1.3-6.8h2.8l-1.7,8.4h-11.7l1.7-8.4h2.8
			l-1.3,6.8l-0.5-0.6H178.3z"/>
		<path class="st0" d="M188.8,185.8l5.4-8.4h2.8l2,8.4h-2.8l-1.4-7.1h1.1l-4.1,7.1H188.8z M191.3,184.3l1.1-2h3.9l0.3,2H191.3z"/>
		<path class="st0" d="M205.3,183.6l-0.7,0.6l1.3-6.8h2.8l-1.3,6.8l-0.5-0.6h2.9l-0.8,0.6l1.3-6.8h2.8l-1.7,8.4h-11.7l1.7-8.4h2.8
			l-1.3,6.8l-0.5-0.6H205.3z"/>
		<path class="st0" d="M215.8,185.8l5.4-8.4h2.8l2,8.4h-2.8l-1.4-7.1h1.1l-4.1,7.1H215.8z M218.3,184.3l1.1-2h3.9l0.3,2H218.3z"/>
		<path class="st0" d="M232.3,183.6l-0.7,0.6l1.3-6.8h2.8l-1.3,6.8l-0.5-0.6h2.9l-0.8,0.6l1.3-6.8h2.8l-1.7,8.4h-11.7l1.7-8.4h2.8
			l-1.3,6.8l-0.5-0.6H232.3z"/>
		<path class="st0" d="M242.8,185.8l5.4-8.4h2.8l2,8.4h-2.8l-1.4-7.1h1.1l-4.1,7.1H242.8z M245.3,184.3l1.1-2h3.9l0.3,2H245.3z"/>
		<path class="st0" d="M259.3,183.6l-0.7,0.6l1.3-6.8h2.8l-1.3,6.8l-0.5-0.6h2.9l-0.8,0.6l1.3-6.8h2.8l-1.7,8.4h-11.7l1.7-8.4h2.8
			l-1.3,6.8l-0.5-0.6H259.3z"/>
		<path class="st0" d="M269.9,185.8l5.4-8.4h2.8l2,8.4h-2.8l-1.4-7.1h1.1l-4.1,7.1H269.9z M272.3,184.3l1.1-2h3.9l0.3,2H272.3z"/>
		<path class="st0" d="M286.3,183.6l-0.7,0.6l1.3-6.8h2.8l-1.3,6.8l-0.5-0.6h2.9l-0.8,0.6l1.3-6.8h2.8l-1.7,8.4h-11.7l1.7-8.4h2.8
			l-1.3,6.8l-0.5-0.6H286.3z"/>
	</g>
	<g>
		<path class="st0" d="M-0.3,200.5l5.4-8.4h2.8l2,8.4H7l-1.4-7.1h1.1l-4.1,7.1H-0.3z M2.2,199l1.1-2h3.9l0.3,2H2.2z"/>
		<path class="st0" d="M16.2,198.3l-0.7,0.6l1.3-6.8h2.8l-1.3,6.8l-0.5-0.6h2.9l-0.8,0.6l1.3-6.8H24l-1.7,8.4H10.6l1.7-8.4h2.8
			l-1.3,6.8l-0.5-0.6H16.2z"/>
		<path class="st0" d="M26.7,200.5l5.4-8.4h2.8l2,8.4h-2.8l-1.4-7.1h1.1l-4.1,7.1H26.7z M29.2,199l1.1-2h3.9l0.3,2H29.2z"/>
		<path class="st0" d="M43.2,198.3l-0.7,0.6l1.3-6.8h2.8l-1.3,6.8l-0.5-0.6h2.9l-0.8,0.6l1.3-6.8h2.8l-1.7,8.4H37.7l1.7-8.4h2.8
			l-1.3,6.8l-0.5-0.6H43.2z"/>
		<path class="st0" d="M53.8,200.5l5.4-8.4h2.8l2,8.4h-2.8l-1.4-7.1h1.1l-4.1,7.1H53.8z M56.2,199l1.1-2h3.9l0.3,2H56.2z"/>
		<path class="st0" d="M70.2,198.3l-0.7,0.6l1.3-6.8h2.8l-1.3,6.8l-0.5-0.6h2.9l-0.8,0.6l1.3-6.8h2.8l-1.7,8.4H64.7l1.7-8.4h2.8
			l-1.3,6.8l-0.5-0.6H70.2z"/>
		<path class="st0" d="M80.8,200.5l5.4-8.4h2.8l2,8.4h-2.8l-1.4-7.1h1.1l-4.1,7.1H80.8z M83.2,199l1.1-2h3.9l0.3,2H83.2z"/>
		<path class="st0" d="M97.2,198.3l-0.7,0.6l1.3-6.8h2.8l-1.3,6.8l-0.5-0.6h2.9l-0.8,0.6l1.3-6.8h2.8l-1.7,8.4H91.7l1.7-8.4h2.8
			l-1.3,6.8l-0.5-0.6H97.2z"/>
		<path class="st0" d="M107.8,200.5l5.4-8.4h2.8l2,8.4h-2.8l-1.4-7.1h1.1l-4.1,7.1H107.8z M110.3,199l1.1-2h3.9l0.3,2H110.3z"/>
		<path class="st0" d="M124.3,198.3l-0.7,0.6l1.3-6.8h2.8l-1.3,6.8l-0.5-0.6h2.9l-0.8,0.6l1.3-6.8h2.8l-1.7,8.4h-11.7l1.7-8.4h2.8
			l-1.3,6.8l-0.5-0.6H124.3z"/>
		<path class="st0" d="M134.8,200.5l5.4-8.4h2.8l2,8.4h-2.8l-1.4-7.1h1.1l-4.1,7.1H134.8z M137.3,199l1.1-2h3.9l0.3,2H137.3z"/>
		<path class="st0" d="M151.3,198.3l-0.7,0.6l1.3-6.8h2.8l-1.3,6.8l-0.5-0.6h2.9l-0.8,0.6l1.3-6.8h2.8l-1.7,8.4h-11.7l1.7-8.4h2.8
			l-1.3,6.8l-0.5-0.6H151.3z"/>
		<path class="st0" d="M161.8,200.5l5.4-8.4h2.8l2,8.4h-2.8l-1.4-7.1h1.1l-4.1,7.1H161.8z M164.3,199l1.1-2h3.9l0.3,2H164.3z"/>
		<path class="st0" d="M178.3,198.3l-0.7,0.6l1.3-6.8h2.8l-1.3,6.8l-0.5-0.6h2.9l-0.8,0.6l1.3-6.8h2.8l-1.7,8.4h-11.7l1.7-8.4h2.8
			l-1.3,6.8l-0.5-0.6H178.3z"/>
		<path class="st0" d="M188.8,200.5l5.4-8.4h2.8l2,8.4h-2.8l-1.4-7.1h1.1l-4.1,7.1H188.8z M191.3,199l1.1-2h3.9l0.3,2H191.3z"/>
		<path class="st0" d="M205.3,198.3l-0.7,0.6l1.3-6.8h2.8l-1.3,6.8l-0.5-0.6h2.9l-0.8,0.6l1.3-6.8h2.8l-1.7,8.4h-11.7l1.7-8.4h2.8
			l-1.3,6.8l-0.5-0.6H205.3z"/>
		<path class="st0" d="M215.8,200.5l5.4-8.4h2.8l2,8.4h-2.8l-1.4-7.1h1.1l-4.1,7.1H215.8z M218.3,199l1.1-2h3.9l0.3,2H218.3z"/>
		<path class="st0" d="M232.3,198.3l-0.7,0.6l1.3-6.8h2.8l-1.3,6.8l-0.5-0.6h2.9l-0.8,0.6l1.3-6.8h2.8l-1.7,8.4h-11.7l1.7-8.4h2.8
			l-1.3,6.8l-0.5-0.6H232.3z"/>
		<path class="st0" d="M242.8,200.5l5.4-8.4h2.8l2,8.4h-2.8l-1.4-7.1h1.1l-4.1,7.1H242.8z M245.3,199l1.1-2h3.9l0.3,2H245.3z"/>
		<path class="st0" d="M259.3,198.3l-0.7,0.6l1.3-6.8h2.8l-1.3,6.8l-0.5-0.6h2.9l-0.8,0.6l1.3-6.8h2.8l-1.7,8.4h-11.7l1.7-8.4h2.8
			l-1.3,6.8l-0.5-0.6H259.3z"/>
		<path class="st0" d="M269.9,200.5l5.4-8.4h2.8l2,8.4h-2.8l-1.4-7.1h1.1l-4.1,7.1H269.9z M272.3,199l1.1-2h3.9l0.3,2H272.3z"/>
		<path class="st0" d="M286.3,198.3l-0.7,0.6l1.3-6.8h2.8l-1.3,6.8l-0.5-0.6h2.9l-0.8,0.6l1.3-6.8h2.8l-1.7,8.4h-11.7l1.7-8.4h2.8
			l-1.3,6.8l-0.5-0.6H286.3z"/>
	</g>
	<g>
		<path class="st0" d="M-0.3,215.1l5.4-8.4h2.8l2,8.4H7L5.7,208h1.1l-4.1,7.1H-0.3z M2.2,213.7l1.1-2h3.9l0.3,2H2.2z"/>
		<path class="st0" d="M16.2,212.9l-0.7,0.6l1.3-6.8h2.8l-1.3,6.8l-0.5-0.6h2.9l-0.8,0.6l1.3-6.8H24l-1.7,8.4H10.6l1.7-8.4h2.8
			l-1.3,6.8l-0.5-0.6H16.2z"/>
		<path class="st0" d="M26.7,215.1l5.4-8.4h2.8l2,8.4h-2.8l-1.4-7.1h1.1l-4.1,7.1H26.7z M29.2,213.7l1.1-2h3.9l0.3,2H29.2z"/>
		<path class="st0" d="M43.2,212.9l-0.7,0.6l1.3-6.8h2.8l-1.3,6.8l-0.5-0.6h2.9l-0.8,0.6l1.3-6.8h2.8l-1.7,8.4H37.7l1.7-8.4h2.8
			l-1.3,6.8l-0.5-0.6H43.2z"/>
		<path class="st0" d="M53.8,215.1l5.4-8.4h2.8l2,8.4h-2.8l-1.4-7.1h1.1l-4.1,7.1H53.8z M56.2,213.7l1.1-2h3.9l0.3,2H56.2z"/>
		<path class="st0" d="M70.2,212.9l-0.7,0.6l1.3-6.8h2.8l-1.3,6.8l-0.5-0.6h2.9l-0.8,0.6l1.3-6.8h2.8l-1.7,8.4H64.7l1.7-8.4h2.8
			l-1.3,6.8l-0.5-0.6H70.2z"/>
		<path class="st0" d="M80.8,215.1l5.4-8.4h2.8l2,8.4h-2.8l-1.4-7.1h1.1l-4.1,7.1H80.8z M83.2,213.7l1.1-2h3.9l0.3,2H83.2z"/>
		<path class="st0" d="M97.2,212.9l-0.7,0.6l1.3-6.8h2.8l-1.3,6.8l-0.5-0.6h2.9l-0.8,0.6l1.3-6.8h2.8l-1.7,8.4H91.7l1.7-8.4h2.8
			l-1.3,6.8l-0.5-0.6H97.2z"/>
		<path class="st0" d="M107.8,215.1l5.4-8.4h2.8l2,8.4h-2.8l-1.4-7.1h1.1l-4.1,7.1H107.8z M110.3,213.7l1.1-2h3.9l0.3,2H110.3z"/>
		<path class="st0" d="M124.3,212.9l-0.7,0.6l1.3-6.8h2.8l-1.3,6.8l-0.5-0.6h2.9l-0.8,0.6l1.3-6.8h2.8l-1.7,8.4h-11.7l1.7-8.4h2.8
			l-1.3,6.8l-0.5-0.6H124.3z"/>
		<path class="st0" d="M134.8,215.1l5.4-8.4h2.8l2,8.4h-2.8l-1.4-7.1h1.1l-4.1,7.1H134.8z M137.3,213.7l1.1-2h3.9l0.3,2H137.3z"/>
		<path class="st0" d="M151.3,212.9l-0.7,0.6l1.3-6.8h2.8l-1.3,6.8l-0.5-0.6h2.9l-0.8,0.6l1.3-6.8h2.8l-1.7,8.4h-11.7l1.7-8.4h2.8
			l-1.3,6.8l-0.5-0.6H151.3z"/>
		<path class="st0" d="M161.8,215.1l5.4-8.4h2.8l2,8.4h-2.8l-1.4-7.1h1.1l-4.1,7.1H161.8z M164.3,213.7l1.1-2h3.9l0.3,2H164.3z"/>
		<path class="st0" d="M178.3,212.9l-0.7,0.6l1.3-6.8h2.8l-1.3,6.8l-0.5-0.6h2.9l-0.8,0.6l1.3-6.8h2.8l-1.7,8.4h-11.7l1.7-8.4h2.8
			l-1.3,6.8l-0.5-0.6H178.3z"/>
		<path class="st0" d="M188.8,215.1l5.4-8.4h2.8l2,8.4h-2.8l-1.4-7.1h1.1l-4.1,7.1H188.8z M191.3,213.7l1.1-2h3.9l0.3,2H191.3z"/>
		<path class="st0" d="M205.3,212.9l-0.7,0.6l1.3-6.8h2.8l-1.3,6.8l-0.5-0.6h2.9l-0.8,0.6l1.3-6.8h2.8l-1.7,8.4h-11.7l1.7-8.4h2.8
			l-1.3,6.8l-0.5-0.6H205.3z"/>
		<path class="st0" d="M215.8,215.1l5.4-8.4h2.8l2,8.4h-2.8l-1.4-7.1h1.1l-4.1,7.1H215.8z M218.3,213.7l1.1-2h3.9l0.3,2H218.3z"/>
		<path class="st0" d="M232.3,212.9l-0.7,0.6l1.3-6.8h2.8l-1.3,6.8l-0.5-0.6h2.9l-0.8,0.6l1.3-6.8h2.8l-1.7,8.4h-11.7l1.7-8.4h2.8
			l-1.3,6.8l-0.5-0.6H232.3z"/>
		<path class="st0" d="M242.8,215.1l5.4-8.4h2.8l2,8.4h-2.8l-1.4-7.1h1.1l-4.1,7.1H242.8z M245.3,213.7l1.1-2h3.9l0.3,2H245.3z"/>
		<path class="st0" d="M259.3,212.9l-0.7,0.6l1.3-6.8h2.8l-1.3,6.8l-0.5-0.6h2.9l-0.8,0.6l1.3-6.8h2.8l-1.7,8.4h-11.7l1.7-8.4h2.8
			l-1.3,6.8l-0.5-0.6H259.3z"/>
		<path class="st0" d="M269.9,215.1l5.4-8.4h2.8l2,8.4h-2.8l-1.4-7.1h1.1l-4.1,7.1H269.9z M272.3,213.7l1.1-2h3.9l0.3,2H272.3z"/>
		<path class="st0" d="M286.3,212.9l-0.7,0.6l1.3-6.8h2.8l-1.3,6.8l-0.5-0.6h2.9l-0.8,0.6l1.3-6.8h2.8l-1.7,8.4h-11.7l1.7-8.4h2.8
			l-1.3,6.8l-0.5-0.6H286.3z"/>
	</g>
	<g>
		<path class="st0" d="M-0.3,229.8l5.4-8.4h2.8l2,8.4H7l-1.4-7.1h1.1l-4.1,7.1H-0.3z M2.2,228.3l1.1-2h3.9l0.3,2H2.2z"/>
		<path class="st0" d="M16.2,227.6l-0.7,0.6l1.3-6.8h2.8l-1.3,6.8l-0.5-0.6h2.9l-0.8,0.6l1.3-6.8H24l-1.7,8.4H10.6l1.7-8.4h2.8
			l-1.3,6.8l-0.5-0.6H16.2z"/>
		<path class="st0" d="M26.7,229.8l5.4-8.4h2.8l2,8.4h-2.8l-1.4-7.1h1.1l-4.1,7.1H26.7z M29.2,228.3l1.1-2h3.9l0.3,2H29.2z"/>
		<path class="st0" d="M43.2,227.6l-0.7,0.6l1.3-6.8h2.8l-1.3,6.8l-0.5-0.6h2.9l-0.8,0.6l1.3-6.8h2.8l-1.7,8.4H37.7l1.7-8.4h2.8
			l-1.3,6.8l-0.5-0.6H43.2z"/>
		<path class="st0" d="M53.8,229.8l5.4-8.4h2.8l2,8.4h-2.8l-1.4-7.1h1.1l-4.1,7.1H53.8z M56.2,228.3l1.1-2h3.9l0.3,2H56.2z"/>
		<path class="st0" d="M70.2,227.6l-0.7,0.6l1.3-6.8h2.8l-1.3,6.8l-0.5-0.6h2.9l-0.8,0.6l1.3-6.8h2.8l-1.7,8.4H64.7l1.7-8.4h2.8
			l-1.3,6.8l-0.5-0.6H70.2z"/>
		<path class="st0" d="M80.8,229.8l5.4-8.4h2.8l2,8.4h-2.8l-1.4-7.1h1.1l-4.1,7.1H80.8z M83.2,228.3l1.1-2h3.9l0.3,2H83.2z"/>
		<path class="st0" d="M97.2,227.6l-0.7,0.6l1.3-6.8h2.8l-1.3,6.8l-0.5-0.6h2.9l-0.8,0.6l1.3-6.8h2.8l-1.7,8.4H91.7l1.7-8.4h2.8
			l-1.3,6.8l-0.5-0.6H97.2z"/>
		<path class="st0" d="M107.8,229.8l5.4-8.4h2.8l2,8.4h-2.8l-1.4-7.1h1.1l-4.1,7.1H107.8z M110.3,228.3l1.1-2h3.9l0.3,2H110.3z"/>
		<path class="st0" d="M124.3,227.6l-0.7,0.6l1.3-6.8h2.8l-1.3,6.8l-0.5-0.6h2.9l-0.8,0.6l1.3-6.8h2.8l-1.7,8.4h-11.7l1.7-8.4h2.8
			l-1.3,6.8l-0.5-0.6H124.3z"/>
		<path class="st0" d="M134.8,229.8l5.4-8.4h2.8l2,8.4h-2.8l-1.4-7.1h1.1l-4.1,7.1H134.8z M137.3,228.3l1.1-2h3.9l0.3,2H137.3z"/>
		<path class="st0" d="M151.3,227.6l-0.7,0.6l1.3-6.8h2.8l-1.3,6.8l-0.5-0.6h2.9l-0.8,0.6l1.3-6.8h2.8l-1.7,8.4h-11.7l1.7-8.4h2.8
			l-1.3,6.8l-0.5-0.6H151.3z"/>
		<path class="st0" d="M161.8,229.8l5.4-8.4h2.8l2,8.4h-2.8l-1.4-7.1h1.1l-4.1,7.1H161.8z M164.3,228.3l1.1-2h3.9l0.3,2H164.3z"/>
		<path class="st0" d="M178.3,227.6l-0.7,0.6l1.3-6.8h2.8l-1.3,6.8l-0.5-0.6h2.9l-0.8,0.6l1.3-6.8h2.8l-1.7,8.4h-11.7l1.7-8.4h2.8
			l-1.3,6.8l-0.5-0.6H178.3z"/>
		<path class="st0" d="M188.8,229.8l5.4-8.4h2.8l2,8.4h-2.8l-1.4-7.1h1.1l-4.1,7.1H188.8z M191.3,228.3l1.1-2h3.9l0.3,2H191.3z"/>
		<path class="st0" d="M205.3,227.6l-0.7,0.6l1.3-6.8h2.8l-1.3,6.8l-0.5-0.6h2.9l-0.8,0.6l1.3-6.8h2.8l-1.7,8.4h-11.7l1.7-8.4h2.8
			l-1.3,6.8l-0.5-0.6H205.3z"/>
		<path class="st0" d="M215.8,229.8l5.4-8.4h2.8l2,8.4h-2.8l-1.4-7.1h1.1l-4.1,7.1H215.8z M218.3,228.3l1.1-2h3.9l0.3,2H218.3z"/>
		<path class="st0" d="M232.3,227.6l-0.7,0.6l1.3-6.8h2.8l-1.3,6.8l-0.5-0.6h2.9l-0.8,0.6l1.3-6.8h2.8l-1.7,8.4h-11.7l1.7-8.4h2.8
			l-1.3,6.8l-0.5-0.6H232.3z"/>
		<path class="st0" d="M242.8,229.8l5.4-8.4h2.8l2,8.4h-2.8l-1.4-7.1h1.1l-4.1,7.1H242.8z M245.3,228.3l1.1-2h3.9l0.3,2H245.3z"/>
		<path class="st0" d="M259.3,227.6l-0.7,0.6l1.3-6.8h2.8l-1.3,6.8l-0.5-0.6h2.9l-0.8,0.6l1.3-6.8h2.8l-1.7,8.4h-11.7l1.7-8.4h2.8
			l-1.3,6.8l-0.5-0.6H259.3z"/>
		<path class="st0" d="M269.9,229.8l5.4-8.4h2.8l2,8.4h-2.8l-1.4-7.1h1.1l-4.1,7.1H269.9z M272.3,228.3l1.1-2h3.9l0.3,2H272.3z"/>
		<path class="st0" d="M286.3,227.6l-0.7,0.6l1.3-6.8h2.8l-1.3,6.8l-0.5-0.6h2.9l-0.8,0.6l1.3-6.8h2.8l-1.7,8.4h-11.7l1.7-8.4h2.8
			l-1.3,6.8l-0.5-0.6H286.3z"/>
	</g>
	<g>
		<path class="st0" d="M-0.3,244.5l5.4-8.4h2.8l2,8.4H7l-1.4-7.1h1.1l-4.1,7.1H-0.3z M2.2,243l1.1-2h3.9l0.3,2H2.2z"/>
		<path class="st0" d="M16.2,242.3l-0.7,0.6l1.3-6.8h2.8l-1.3,6.8l-0.5-0.6h2.9l-0.8,0.6l1.3-6.8H24l-1.7,8.4H10.6l1.7-8.4h2.8
			l-1.3,6.8l-0.5-0.6H16.2z"/>
		<path class="st0" d="M26.7,244.5l5.4-8.4h2.8l2,8.4h-2.8l-1.4-7.1h1.1l-4.1,7.1H26.7z M29.2,243l1.1-2h3.9l0.3,2H29.2z"/>
		<path class="st0" d="M43.2,242.3l-0.7,0.6l1.3-6.8h2.8l-1.3,6.8l-0.5-0.6h2.9l-0.8,0.6l1.3-6.8h2.8l-1.7,8.4H37.7l1.7-8.4h2.8
			l-1.3,6.8l-0.5-0.6H43.2z"/>
		<path class="st0" d="M53.8,244.5l5.4-8.4h2.8l2,8.4h-2.8l-1.4-7.1h1.1l-4.1,7.1H53.8z M56.2,243l1.1-2h3.9l0.3,2H56.2z"/>
		<path class="st0" d="M70.2,242.3l-0.7,0.6l1.3-6.8h2.8l-1.3,6.8l-0.5-0.6h2.9l-0.8,0.6l1.3-6.8h2.8l-1.7,8.4H64.7l1.7-8.4h2.8
			l-1.3,6.8l-0.5-0.6H70.2z"/>
		<path class="st0" d="M80.8,244.5l5.4-8.4h2.8l2,8.4h-2.8l-1.4-7.1h1.1l-4.1,7.1H80.8z M83.2,243l1.1-2h3.9l0.3,2H83.2z"/>
		<path class="st0" d="M97.2,242.3l-0.7,0.6l1.3-6.8h2.8l-1.3,6.8l-0.5-0.6h2.9l-0.8,0.6l1.3-6.8h2.8l-1.7,8.4H91.7l1.7-8.4h2.8
			l-1.3,6.8l-0.5-0.6H97.2z"/>
		<path class="st0" d="M107.8,244.5l5.4-8.4h2.8l2,8.4h-2.8l-1.4-7.1h1.1l-4.1,7.1H107.8z M110.3,243l1.1-2h3.9l0.3,2H110.3z"/>
		<path class="st0" d="M124.3,242.3l-0.7,0.6l1.3-6.8h2.8l-1.3,6.8l-0.5-0.6h2.9l-0.8,0.6l1.3-6.8h2.8l-1.7,8.4h-11.7l1.7-8.4h2.8
			l-1.3,6.8l-0.5-0.6H124.3z"/>
		<path class="st0" d="M134.8,244.5l5.4-8.4h2.8l2,8.4h-2.8l-1.4-7.1h1.1l-4.1,7.1H134.8z M137.3,243l1.1-2h3.9l0.3,2H137.3z"/>
		<path class="st0" d="M151.3,242.3l-0.7,0.6l1.3-6.8h2.8l-1.3,6.8l-0.5-0.6h2.9l-0.8,0.6l1.3-6.8h2.8l-1.7,8.4h-11.7l1.7-8.4h2.8
			l-1.3,6.8l-0.5-0.6H151.3z"/>
		<path class="st0" d="M161.8,244.5l5.4-8.4h2.8l2,8.4h-2.8l-1.4-7.1h1.1l-4.1,7.1H161.8z M164.3,243l1.1-2h3.9l0.3,2H164.3z"/>
		<path class="st0" d="M178.3,242.3l-0.7,0.6l1.3-6.8h2.8l-1.3,6.8l-0.5-0.6h2.9l-0.8,0.6l1.3-6.8h2.8l-1.7,8.4h-11.7l1.7-8.4h2.8
			l-1.3,6.8l-0.5-0.6H178.3z"/>
		<path class="st0" d="M188.8,244.5l5.4-8.4h2.8l2,8.4h-2.8l-1.4-7.1h1.1l-4.1,7.1H188.8z M191.3,243l1.1-2h3.9l0.3,2H191.3z"/>
		<path class="st0" d="M205.3,242.3l-0.7,0.6l1.3-6.8h2.8l-1.3,6.8l-0.5-0.6h2.9l-0.8,0.6l1.3-6.8h2.8l-1.7,8.4h-11.7l1.7-8.4h2.8
			l-1.3,6.8l-0.5-0.6H205.3z"/>
		<path class="st0" d="M215.8,244.5l5.4-8.4h2.8l2,8.4h-2.8l-1.4-7.1h1.1l-4.1,7.1H215.8z M218.3,243l1.1-2h3.9l0.3,2H218.3z"/>
		<path class="st0" d="M232.3,242.3l-0.7,0.6l1.3-6.8h2.8l-1.3,6.8l-0.5-0.6h2.9l-0.8,0.6l1.3-6.8h2.8l-1.7,8.4h-11.7l1.7-8.4h2.8
			l-1.3,6.8l-0.5-0.6H232.3z"/>
		<path class="st0" d="M242.8,244.5l5.4-8.4h2.8l2,8.4h-2.8l-1.4-7.1h1.1l-4.1,7.1H242.8z M245.3,243l1.1-2h3.9l0.3,2H245.3z"/>
		<path class="st0" d="M259.3,242.3l-0.7,0.6l1.3-6.8h2.8l-1.3,6.8l-0.5-0.6h2.9l-0.8,0.6l1.3-6.8h2.8l-1.7,8.4h-11.7l1.7-8.4h2.8
			l-1.3,6.8l-0.5-0.6H259.3z"/>
		<path class="st0" d="M269.9,244.5l5.4-8.4h2.8l2,8.4h-2.8l-1.4-7.1h1.1l-4.1,7.1H269.9z M272.3,243l1.1-2h3.9l0.3,2H272.3z"/>
		<path class="st0" d="M286.3,242.3l-0.7,0.6l1.3-6.8h2.8l-1.3,6.8l-0.5-0.6h2.9l-0.8,0.6l1.3-6.8h2.8l-1.7,8.4h-11.7l1.7-8.4h2.8
			l-1.3,6.8l-0.5-0.6H286.3z"/>
	</g>
	<g>
		<path class="st0" d="M-0.3,259.1l5.4-8.4h2.8l2,8.4H7L5.7,252h1.1l-4.1,7.1H-0.3z M2.2,257.7l1.1-2h3.9l0.3,2H2.2z"/>
		<path class="st0" d="M16.2,256.9l-0.7,0.6l1.3-6.8h2.8l-1.3,6.8l-0.5-0.6h2.9l-0.8,0.6l1.3-6.8H24l-1.7,8.4H10.6l1.7-8.4h2.8
			l-1.3,6.8l-0.5-0.6H16.2z"/>
		<path class="st0" d="M26.7,259.1l5.4-8.4h2.8l2,8.4h-2.8l-1.4-7.1h1.1l-4.1,7.1H26.7z M29.2,257.7l1.1-2h3.9l0.3,2H29.2z"/>
		<path class="st0" d="M43.2,256.9l-0.7,0.6l1.3-6.8h2.8l-1.3,6.8l-0.5-0.6h2.9l-0.8,0.6l1.3-6.8h2.8l-1.7,8.4H37.7l1.7-8.4h2.8
			l-1.3,6.8l-0.5-0.6H43.2z"/>
		<path class="st0" d="M53.8,259.1l5.4-8.4h2.8l2,8.4h-2.8l-1.4-7.1h1.1l-4.1,7.1H53.8z M56.2,257.7l1.1-2h3.9l0.3,2H56.2z"/>
		<path class="st0" d="M70.2,256.9l-0.7,0.6l1.3-6.8h2.8l-1.3,6.8l-0.5-0.6h2.9l-0.8,0.6l1.3-6.8h2.8l-1.7,8.4H64.7l1.7-8.4h2.8
			l-1.3,6.8l-0.5-0.6H70.2z"/>
		<path class="st0" d="M80.8,259.1l5.4-8.4h2.8l2,8.4h-2.8l-1.4-7.1h1.1l-4.1,7.1H80.8z M83.2,257.7l1.1-2h3.9l0.3,2H83.2z"/>
		<path class="st0" d="M97.2,256.9l-0.7,0.6l1.3-6.8h2.8l-1.3,6.8l-0.5-0.6h2.9l-0.8,0.6l1.3-6.8h2.8l-1.7,8.4H91.7l1.7-8.4h2.8
			l-1.3,6.8l-0.5-0.6H97.2z"/>
		<path class="st0" d="M107.8,259.1l5.4-8.4h2.8l2,8.4h-2.8l-1.4-7.1h1.1l-4.1,7.1H107.8z M110.3,257.7l1.1-2h3.9l0.3,2H110.3z"/>
		<path class="st0" d="M124.3,256.9l-0.7,0.6l1.3-6.8h2.8l-1.3,6.8l-0.5-0.6h2.9l-0.8,0.6l1.3-6.8h2.8l-1.7,8.4h-11.7l1.7-8.4h2.8
			l-1.3,6.8l-0.5-0.6H124.3z"/>
		<path class="st0" d="M134.8,259.1l5.4-8.4h2.8l2,8.4h-2.8l-1.4-7.1h1.1l-4.1,7.1H134.8z M137.3,257.7l1.1-2h3.9l0.3,2H137.3z"/>
		<path class="st0" d="M151.3,256.9l-0.7,0.6l1.3-6.8h2.8l-1.3,6.8l-0.5-0.6h2.9l-0.8,0.6l1.3-6.8h2.8l-1.7,8.4h-11.7l1.7-8.4h2.8
			l-1.3,6.8l-0.5-0.6H151.3z"/>
		<path class="st0" d="M161.8,259.1l5.4-8.4h2.8l2,8.4h-2.8l-1.4-7.1h1.1l-4.1,7.1H161.8z M164.3,257.7l1.1-2h3.9l0.3,2H164.3z"/>
		<path class="st0" d="M178.3,256.9l-0.7,0.6l1.3-6.8h2.8l-1.3,6.8l-0.5-0.6h2.9l-0.8,0.6l1.3-6.8h2.8l-1.7,8.4h-11.7l1.7-8.4h2.8
			l-1.3,6.8l-0.5-0.6H178.3z"/>
		<path class="st0" d="M188.8,259.1l5.4-8.4h2.8l2,8.4h-2.8l-1.4-7.1h1.1l-4.1,7.1H188.8z M191.3,257.7l1.1-2h3.9l0.3,2H191.3z"/>
		<path class="st0" d="M205.3,256.9l-0.7,0.6l1.3-6.8h2.8l-1.3,6.8l-0.5-0.6h2.9l-0.8,0.6l1.3-6.8h2.8l-1.7,8.4h-11.7l1.7-8.4h2.8
			l-1.3,6.8l-0.5-0.6H205.3z"/>
		<path class="st0" d="M215.8,259.1l5.4-8.4h2.8l2,8.4h-2.8l-1.4-7.1h1.1l-4.1,7.1H215.8z M218.3,257.7l1.1-2h3.9l0.3,2H218.3z"/>
		<path class="st0" d="M232.3,256.9l-0.7,0.6l1.3-6.8h2.8l-1.3,6.8l-0.5-0.6h2.9l-0.8,0.6l1.3-6.8h2.8l-1.7,8.4h-11.7l1.7-8.4h2.8
			l-1.3,6.8l-0.5-0.6H232.3z"/>
		<path class="st0" d="M242.8,259.1l5.4-8.4h2.8l2,8.4h-2.8l-1.4-7.1h1.1l-4.1,7.1H242.8z M245.3,257.7l1.1-2h3.9l0.3,2H245.3z"/>
		<path class="st0" d="M259.3,256.9l-0.7,0.6l1.3-6.8h2.8l-1.3,6.8l-0.5-0.6h2.9l-0.8,0.6l1.3-6.8h2.8l-1.7,8.4h-11.7l1.7-8.4h2.8
			l-1.3,6.8l-0.5-0.6H259.3z"/>
		<path class="st0" d="M269.9,259.1l5.4-8.4h2.8l2,8.4h-2.8l-1.4-7.1h1.1l-4.1,7.1H269.9z M272.3,257.7l1.1-2h3.9l0.3,2H272.3z"/>
		<path class="st0" d="M286.3,256.9l-0.7,0.6l1.3-6.8h2.8l-1.3,6.8l-0.5-0.6h2.9l-0.8,0.6l1.3-6.8h2.8l-1.7,8.4h-11.7l1.7-8.4h2.8
			l-1.3,6.8l-0.5-0.6H286.3z"/>
	</g>
	<g>
		<path class="st0" d="M-0.3,273.8l5.4-8.4h2.8l2,8.4H7l-1.4-7.1h1.1l-4.1,7.1H-0.3z M2.2,272.3l1.1-2h3.9l0.3,2H2.2z"/>
		<path class="st0" d="M16.2,271.6l-0.7,0.6l1.3-6.8h2.8l-1.3,6.8l-0.5-0.6h2.9l-0.8,0.6l1.3-6.8H24l-1.7,8.4H10.6l1.7-8.4h2.8
			l-1.3,6.8l-0.5-0.6H16.2z"/>
		<path class="st0" d="M26.7,273.8l5.4-8.4h2.8l2,8.4h-2.8l-1.4-7.1h1.1l-4.1,7.1H26.7z M29.2,272.3l1.1-2h3.9l0.3,2H29.2z"/>
		<path class="st0" d="M43.2,271.6l-0.7,0.6l1.3-6.8h2.8l-1.3,6.8l-0.5-0.6h2.9l-0.8,0.6l1.3-6.8h2.8l-1.7,8.4H37.7l1.7-8.4h2.8
			l-1.3,6.8l-0.5-0.6H43.2z"/>
		<path class="st0" d="M53.8,273.8l5.4-8.4h2.8l2,8.4h-2.8l-1.4-7.1h1.1l-4.1,7.1H53.8z M56.2,272.3l1.1-2h3.9l0.3,2H56.2z"/>
		<path class="st0" d="M70.2,271.6l-0.7,0.6l1.3-6.8h2.8l-1.3,6.8l-0.5-0.6h2.9l-0.8,0.6l1.3-6.8h2.8l-1.7,8.4H64.7l1.7-8.4h2.8
			l-1.3,6.8l-0.5-0.6H70.2z"/>
		<path class="st0" d="M80.8,273.8l5.4-8.4h2.8l2,8.4h-2.8l-1.4-7.1h1.1l-4.1,7.1H80.8z M83.2,272.3l1.1-2h3.9l0.3,2H83.2z"/>
		<path class="st0" d="M97.2,271.6l-0.7,0.6l1.3-6.8h2.8l-1.3,6.8l-0.5-0.6h2.9l-0.8,0.6l1.3-6.8h2.8l-1.7,8.4H91.7l1.7-8.4h2.8
			l-1.3,6.8l-0.5-0.6H97.2z"/>
		<path class="st0" d="M107.8,273.8l5.4-8.4h2.8l2,8.4h-2.8l-1.4-7.1h1.1l-4.1,7.1H107.8z M110.3,272.3l1.1-2h3.9l0.3,2H110.3z"/>
		<path class="st0" d="M124.3,271.6l-0.7,0.6l1.3-6.8h2.8l-1.3,6.8l-0.5-0.6h2.9l-0.8,0.6l1.3-6.8h2.8l-1.7,8.4h-11.7l1.7-8.4h2.8
			l-1.3,6.8l-0.5-0.6H124.3z"/>
		<path class="st0" d="M134.8,273.8l5.4-8.4h2.8l2,8.4h-2.8l-1.4-7.1h1.1l-4.1,7.1H134.8z M137.3,272.3l1.1-2h3.9l0.3,2H137.3z"/>
		<path class="st0" d="M151.3,271.6l-0.7,0.6l1.3-6.8h2.8l-1.3,6.8l-0.5-0.6h2.9l-0.8,0.6l1.3-6.8h2.8l-1.7,8.4h-11.7l1.7-8.4h2.8
			l-1.3,6.8l-0.5-0.6H151.3z"/>
		<path class="st0" d="M161.8,273.8l5.4-8.4h2.8l2,8.4h-2.8l-1.4-7.1h1.1l-4.1,7.1H161.8z M164.3,272.3l1.1-2h3.9l0.3,2H164.3z"/>
		<path class="st0" d="M178.3,271.6l-0.7,0.6l1.3-6.8h2.8l-1.3,6.8l-0.5-0.6h2.9l-0.8,0.6l1.3-6.8h2.8l-1.7,8.4h-11.7l1.7-8.4h2.8
			l-1.3,6.8l-0.5-0.6H178.3z"/>
		<path class="st0" d="M188.8,273.8l5.4-8.4h2.8l2,8.4h-2.8l-1.4-7.1h1.1l-4.1,7.1H188.8z M191.3,272.3l1.1-2h3.9l0.3,2H191.3z"/>
		<path class="st0" d="M205.3,271.6l-0.7,0.6l1.3-6.8h2.8l-1.3,6.8l-0.5-0.6h2.9l-0.8,0.6l1.3-6.8h2.8l-1.7,8.4h-11.7l1.7-8.4h2.8
			l-1.3,6.8l-0.5-0.6H205.3z"/>
		<path class="st0" d="M215.8,273.8l5.4-8.4h2.8l2,8.4h-2.8l-1.4-7.1h1.1l-4.1,7.1H215.8z M218.3,272.3l1.1-2h3.9l0.3,2H218.3z"/>
		<path class="st0" d="M232.3,271.6l-0.7,0.6l1.3-6.8h2.8l-1.3,6.8l-0.5-0.6h2.9l-0.8,0.6l1.3-6.8h2.8l-1.7,8.4h-11.7l1.7-8.4h2.8
			l-1.3,6.8l-0.5-0.6H232.3z"/>
		<path class="st0" d="M242.8,273.8l5.4-8.4h2.8l2,8.4h-2.8l-1.4-7.1h1.1l-4.1,7.1H242.8z M245.3,272.3l1.1-2h3.9l0.3,2H245.3z"/>
		<path class="st0" d="M259.3,271.6l-0.7,0.6l1.3-6.8h2.8l-1.3,6.8l-0.5-0.6h2.9l-0.8,0.6l1.3-6.8h2.8l-1.7,8.4h-11.7l1.7-8.4h2.8
			l-1.3,6.8l-0.5-0.6H259.3z"/>
		<path class="st0" d="M269.9,273.8l5.4-8.4h2.8l2,8.4h-2.8l-1.4-7.1h1.1l-4.1,7.1H269.9z M272.3,272.3l1.1-2h3.9l0.3,2H272.3z"/>
		<path class="st0" d="M286.3,271.6l-0.7,0.6l1.3-6.8h2.8l-1.3,6.8l-0.5-0.6h2.9l-0.8,0.6l1.3-6.8h2.8l-1.7,8.4h-11.7l1.7-8.4h2.8
			l-1.3,6.8l-0.5-0.6H286.3z"/>
	</g>
	<g>
		<path class="st0" d="M-0.3,288.5l5.4-8.4h2.8l2,8.4H7l-1.4-7.1h1.1l-4.1,7.1H-0.3z M2.2,287l1.1-2h3.9l0.3,2H2.2z"/>
		<path class="st0" d="M16.2,286.3l-0.7,0.6l1.3-6.8h2.8l-1.3,6.8l-0.5-0.6h2.9l-0.8,0.6l1.3-6.8H24l-1.7,8.4H10.6l1.7-8.4h2.8
			l-1.3,6.8l-0.5-0.6H16.2z"/>
		<path class="st0" d="M26.7,288.5l5.4-8.4h2.8l2,8.4h-2.8l-1.4-7.1h1.1l-4.1,7.1H26.7z M29.2,287l1.1-2h3.9l0.3,2H29.2z"/>
		<path class="st0" d="M43.2,286.3l-0.7,0.6l1.3-6.8h2.8l-1.3,6.8l-0.5-0.6h2.9l-0.8,0.6l1.3-6.8h2.8l-1.7,8.4H37.7l1.7-8.4h2.8
			l-1.3,6.8l-0.5-0.6H43.2z"/>
		<path class="st0" d="M53.8,288.5l5.4-8.4h2.8l2,8.4h-2.8l-1.4-7.1h1.1l-4.1,7.1H53.8z M56.2,287l1.1-2h3.9l0.3,2H56.2z"/>
		<path class="st0" d="M70.2,286.3l-0.7,0.6l1.3-6.8h2.8l-1.3,6.8l-0.5-0.6h2.9l-0.8,0.6l1.3-6.8h2.8l-1.7,8.4H64.7l1.7-8.4h2.8
			l-1.3,6.8l-0.5-0.6H70.2z"/>
		<path class="st0" d="M80.8,288.5l5.4-8.4h2.8l2,8.4h-2.8l-1.4-7.1h1.1l-4.1,7.1H80.8z M83.2,287l1.1-2h3.9l0.3,2H83.2z"/>
		<path class="st0" d="M97.2,286.3l-0.7,0.6l1.3-6.8h2.8l-1.3,6.8l-0.5-0.6h2.9l-0.8,0.6l1.3-6.8h2.8l-1.7,8.4H91.7l1.7-8.4h2.8
			l-1.3,6.8l-0.5-0.6H97.2z"/>
		<path class="st0" d="M107.8,288.5l5.4-8.4h2.8l2,8.4h-2.8l-1.4-7.1h1.1l-4.1,7.1H107.8z M110.3,287l1.1-2h3.9l0.3,2H110.3z"/>
		<path class="st0" d="M124.3,286.3l-0.7,0.6l1.3-6.8h2.8l-1.3,6.8l-0.5-0.6h2.9l-0.8,0.6l1.3-6.8h2.8l-1.7,8.4h-11.7l1.7-8.4h2.8
			l-1.3,6.8l-0.5-0.6H124.3z"/>
		<path class="st0" d="M134.8,288.5l5.4-8.4h2.8l2,8.4h-2.8l-1.4-7.1h1.1l-4.1,7.1H134.8z M137.3,287l1.1-2h3.9l0.3,2H137.3z"/>
		<path class="st0" d="M151.3,286.3l-0.7,0.6l1.3-6.8h2.8l-1.3,6.8l-0.5-0.6h2.9l-0.8,0.6l1.3-6.8h2.8l-1.7,8.4h-11.7l1.7-8.4h2.8
			l-1.3,6.8l-0.5-0.6H151.3z"/>
		<path class="st0" d="M161.8,288.5l5.4-8.4h2.8l2,8.4h-2.8l-1.4-7.1h1.1l-4.1,7.1H161.8z M164.3,287l1.1-2h3.9l0.3,2H164.3z"/>
		<path class="st0" d="M178.3,286.3l-0.7,0.6l1.3-6.8h2.8l-1.3,6.8l-0.5-0.6h2.9l-0.8,0.6l1.3-6.8h2.8l-1.7,8.4h-11.7l1.7-8.4h2.8
			l-1.3,6.8l-0.5-0.6H178.3z"/>
		<path class="st0" d="M188.8,288.5l5.4-8.4h2.8l2,8.4h-2.8l-1.4-7.1h1.1l-4.1,7.1H188.8z M191.3,287l1.1-2h3.9l0.3,2H191.3z"/>
		<path class="st0" d="M205.3,286.3l-0.7,0.6l1.3-6.8h2.8l-1.3,6.8l-0.5-0.6h2.9l-0.8,0.6l1.3-6.8h2.8l-1.7,8.4h-11.7l1.7-8.4h2.8
			l-1.3,6.8l-0.5-0.6H205.3z"/>
		<path class="st0" d="M215.8,288.5l5.4-8.4h2.8l2,8.4h-2.8l-1.4-7.1h1.1l-4.1,7.1H215.8z M218.3,287l1.1-2h3.9l0.3,2H218.3z"/>
		<path class="st0" d="M232.3,286.3l-0.7,0.6l1.3-6.8h2.8l-1.3,6.8l-0.5-0.6h2.9l-0.8,0.6l1.3-6.8h2.8l-1.7,8.4h-11.7l1.7-8.4h2.8
			l-1.3,6.8l-0.5-0.6H232.3z"/>
		<path class="st0" d="M242.8,288.5l5.4-8.4h2.8l2,8.4h-2.8l-1.4-7.1h1.1l-4.1,7.1H242.8z M245.3,287l1.1-2h3.9l0.3,2H245.3z"/>
		<path class="st0" d="M259.3,286.3l-0.7,0.6l1.3-6.8h2.8l-1.3,6.8l-0.5-0.6h2.9l-0.8,0.6l1.3-6.8h2.8l-1.7,8.4h-11.7l1.7-8.4h2.8
			l-1.3,6.8l-0.5-0.6H259.3z"/>
		<path class="st0" d="M269.9,288.5l5.4-8.4h2.8l2,8.4h-2.8l-1.4-7.1h1.1l-4.1,7.1H269.9z M272.3,287l1.1-2h3.9l0.3,2H272.3z"/>
		<path class="st0" d="M286.3,286.3l-0.7,0.6l1.3-6.8h2.8l-1.3,6.8l-0.5-0.6h2.9l-0.8,0.6l1.3-6.8h2.8l-1.7,8.4h-11.7l1.7-8.4h2.8
			l-1.3,6.8l-0.5-0.6H286.3z"/>
	</g>
	<g>
		<path class="st0" d="M-0.3,303.1l5.4-8.4h2.8l2,8.4H7L5.7,296h1.1l-4.1,7.1H-0.3z M2.2,301.7l1.1-2h3.9l0.3,2H2.2z"/>
		<path class="st0" d="M16.2,300.9l-0.7,0.6l1.3-6.8h2.8l-1.3,6.8l-0.5-0.6h2.9l-0.8,0.6l1.3-6.8H24l-1.7,8.4H10.6l1.7-8.4h2.8
			l-1.3,6.8l-0.5-0.6H16.2z"/>
		<path class="st0" d="M26.7,303.1l5.4-8.4h2.8l2,8.4h-2.8l-1.4-7.1h1.1l-4.1,7.1H26.7z M29.2,301.7l1.1-2h3.9l0.3,2H29.2z"/>
		<path class="st0" d="M43.2,300.9l-0.7,0.6l1.3-6.8h2.8l-1.3,6.8l-0.5-0.6h2.9l-0.8,0.6l1.3-6.8h2.8l-1.7,8.4H37.7l1.7-8.4h2.8
			l-1.3,6.8l-0.5-0.6H43.2z"/>
		<path class="st0" d="M53.8,303.1l5.4-8.4h2.8l2,8.4h-2.8l-1.4-7.1h1.1l-4.1,7.1H53.8z M56.2,301.7l1.1-2h3.9l0.3,2H56.2z"/>
		<path class="st0" d="M70.2,300.9l-0.7,0.6l1.3-6.8h2.8l-1.3,6.8l-0.5-0.6h2.9l-0.8,0.6l1.3-6.8h2.8l-1.7,8.4H64.7l1.7-8.4h2.8
			l-1.3,6.8l-0.5-0.6H70.2z"/>
		<path class="st0" d="M80.8,303.1l5.4-8.4h2.8l2,8.4h-2.8l-1.4-7.1h1.1l-4.1,7.1H80.8z M83.2,301.7l1.1-2h3.9l0.3,2H83.2z"/>
		<path class="st0" d="M97.2,300.9l-0.7,0.6l1.3-6.8h2.8l-1.3,6.8l-0.5-0.6h2.9l-0.8,0.6l1.3-6.8h2.8l-1.7,8.4H91.7l1.7-8.4h2.8
			l-1.3,6.8l-0.5-0.6H97.2z"/>
		<path class="st0" d="M107.8,303.1l5.4-8.4h2.8l2,8.4h-2.8l-1.4-7.1h1.1l-4.1,7.1H107.8z M110.3,301.7l1.1-2h3.9l0.3,2H110.3z"/>
		<path class="st0" d="M124.3,300.9l-0.7,0.6l1.3-6.8h2.8l-1.3,6.8l-0.5-0.6h2.9l-0.8,0.6l1.3-6.8h2.8l-1.7,8.4h-11.7l1.7-8.4h2.8
			l-1.3,6.8l-0.5-0.6H124.3z"/>
		<path class="st0" d="M134.8,303.1l5.4-8.4h2.8l2,8.4h-2.8l-1.4-7.1h1.1l-4.1,7.1H134.8z M137.3,301.7l1.1-2h3.9l0.3,2H137.3z"/>
		<path class="st0" d="M151.3,300.9l-0.7,0.6l1.3-6.8h2.8l-1.3,6.8l-0.5-0.6h2.9l-0.8,0.6l1.3-6.8h2.8l-1.7,8.4h-11.7l1.7-8.4h2.8
			l-1.3,6.8l-0.5-0.6H151.3z"/>
		<path class="st0" d="M161.8,303.1l5.4-8.4h2.8l2,8.4h-2.8l-1.4-7.1h1.1l-4.1,7.1H161.8z M164.3,301.7l1.1-2h3.9l0.3,2H164.3z"/>
		<path class="st0" d="M178.3,300.9l-0.7,0.6l1.3-6.8h2.8l-1.3,6.8l-0.5-0.6h2.9l-0.8,0.6l1.3-6.8h2.8l-1.7,8.4h-11.7l1.7-8.4h2.8
			l-1.3,6.8l-0.5-0.6H178.3z"/>
		<path class="st0" d="M188.8,303.1l5.4-8.4h2.8l2,8.4h-2.8l-1.4-7.1h1.1l-4.1,7.1H188.8z M191.3,301.7l1.1-2h3.9l0.3,2H191.3z"/>
		<path class="st0" d="M205.3,300.9l-0.7,0.6l1.3-6.8h2.8l-1.3,6.8l-0.5-0.6h2.9l-0.8,0.6l1.3-6.8h2.8l-1.7,8.4h-11.7l1.7-8.4h2.8
			l-1.3,6.8l-0.5-0.6H205.3z"/>
		<path class="st0" d="M215.8,303.1l5.4-8.4h2.8l2,8.4h-2.8l-1.4-7.1h1.1l-4.1,7.1H215.8z M218.3,301.7l1.1-2h3.9l0.3,2H218.3z"/>
		<path class="st0" d="M232.3,300.9l-0.7,0.6l1.3-6.8h2.8l-1.3,6.8l-0.5-0.6h2.9l-0.8,0.6l1.3-6.8h2.8l-1.7,8.4h-11.7l1.7-8.4h2.8
			l-1.3,6.8l-0.5-0.6H232.3z"/>
		<path class="st0" d="M242.8,303.1l5.4-8.4h2.8l2,8.4h-2.8l-1.4-7.1h1.1l-4.1,7.1H242.8z M245.3,301.7l1.1-2h3.9l0.3,2H245.3z"/>
		<path class="st0" d="M259.3,300.9l-0.7,0.6l1.3-6.8h2.8l-1.3,6.8l-0.5-0.6h2.9l-0.8,0.6l1.3-6.8h2.8l-1.7,8.4h-11.7l1.7-8.4h2.8
			l-1.3,6.8l-0.5-0.6H259.3z"/>
		<path class="st0" d="M269.9,303.1l5.4-8.4h2.8l2,8.4h-2.8l-1.4-7.1h1.1l-4.1,7.1H269.9z M272.3,301.7l1.1-2h3.9l0.3,2H272.3z"/>
		<path class="st0" d="M286.3,300.9l-0.7,0.6l1.3-6.8h2.8l-1.3,6.8l-0.5-0.6h2.9l-0.8,0.6l1.3-6.8h2.8l-1.7,8.4h-11.7l1.7-8.4h2.8
			l-1.3,6.8l-0.5-0.6H286.3z"/>
	</g>
</g>
</svg>
